<svg xmlns="http://www.w3.org/2000/svg" version="1.1" xmlns:xlink="http://www.w3.org/1999/xlink" width="80px" height="70px"><svg width="80px" height="70px" viewBox="0 0 80 70" version="1.1" xmlns="http://www.w3.org/2000/svg" xmlns:xlink="http://www.w3.org/1999/xlink">
    <title>Artboard</title>
    <g id="SvgjsG1049" stroke="none" stroke-width="1" fill="none" fill-rule="evenodd">
        <path d="M24.8587,45.0013 L2.2107,45.0013 L2.2107,21.8083 L24.8517,21.8083 C22.5597,25.1003 21.2157,29.0973 21.2157,33.4043 C21.2157,37.6233 22.5357,41.6543 24.8587,45.0013" id="SvgjsPath1048" fill="#49734A"></path>
        <path d="M19.8804,5.093 C19.8804,5.598 19.3834,6.011 18.7764,6.011 L9.5264,6.011 C8.9194,6.011 8.4224,5.598 8.4224,5.093 L8.4224,3.374 C8.4224,2.87 8.9194,2.458 9.5264,2.458 L18.7764,2.458 C19.3844,2.458 19.8814,2.87 19.8814,3.374 L19.8814,5.093 L19.8804,5.093 Z" id="SvgjsPath1047" fill="#000000"></path>
        <path d="M14.4505,17.1602 C14.4505,17.4642 14.2025,17.7132 13.8975,17.7132 L6.1675,17.7132 C5.8635,17.7132 5.6155,17.4652 5.6155,17.1602 L5.6155,13.8472 C5.6155,13.5432 5.8635,13.2952 6.1675,13.2952 L13.8985,13.2952 C14.2025,13.2952 14.4515,13.5432 14.4515,13.8472 L14.4515,17.1602 L14.4505,17.1602 Z" id="SvgjsPath1046" fill="#000000"></path>
        <g id="SvgjsG1045" transform="translate(-0.0001, 0)" fill="#000000">
            <path d="M77.44,0 L70.514,7.773 L54.68,7.773 L53.279,2.914 C52.973,1.854 51.91,1.054 50.807,1.054 L32.306,1.054 C31.203,1.054 30.141,1.854 29.835,2.913 L28.433,7.773 L5.523,7.773 C2.478,7.773 0,10.249 0,13.294 L0,53.516 C0,56.561 2.478,59.038 5.523,59.038 L24.835,59.038 L17.038,67.787 L19.192,69.707 L79.594,1.919 L77.44,0 Z M36.873,44.419 C36.771,44.367 36.666,44.318 36.566,44.263 C30.686,41.101 28.483,33.772 31.644,27.892 C34.134,23.263 39.204,20.916 44.119,21.667 C39.756,21.813 35.586,24.205 33.369,28.325 C30.372,33.9 31.977,40.716 36.873,44.419 L36.873,44.419 Z M54.506,25.738 C51.885,21.319 47.066,18.356 41.556,18.357 C33.245,18.357 26.507,25.095 26.507,33.405 C26.507,39.533 30.171,44.805 35.426,47.153 L33.292,49.548 C27.274,46.459 23.426,40.205 23.426,33.405 C23.426,23.408 31.559,15.274 41.556,15.274 C47.665,15.274 53.263,18.28 56.641,23.344 L54.506,25.738 Z M41.556,13.064 C34.646,13.064 28.531,16.528 24.852,21.809 C22.56,25.1 21.216,29.097 21.216,33.404 C21.216,37.623 22.536,41.654 24.859,45.001 C26.629,47.555 28.983,49.709 31.779,51.245 L26.804,56.828 L5.523,56.828 C3.696,56.828 2.21,55.342 2.21,53.516 L2.21,13.294 C2.21,11.467 3.696,9.982 5.523,9.982 L30.094,9.982 L31.956,3.526 C31.988,3.416 32.191,3.263 32.306,3.263 L50.806,3.263 C50.922,3.263 51.124,3.416 51.155,3.526 L53.018,9.982 L68.547,9.982 L58.154,21.645 C54.336,16.251 48.217,13.064 41.556,13.064 L41.556,13.064 Z" id="SvgjsPath1044"></path>
        </g>
    </g>
</svg><style>@media (prefers-color-scheme: light) { :root { filter: none; } }
@media (prefers-color-scheme: dark) { :root { filter: none; } }
</style></svg>