<svg width="24" height="23" viewBox="0 0 24 23" fill="none" xmlns="http://www.w3.org/2000/svg">
<path d="M10.8408 1.33203L18.3848 5.17871C18.7211 5.3469 18.9877 5.60419 19.1904 5.91406C19.3784 6.20142 19.5121 6.51197 19.583 6.84277L19.6699 7.25H20C20.7505 7.25 21.4112 7.52645 21.9424 8.05762C22.4736 8.58884 22.75 9.24954 22.75 10V19C22.75 19.7505 22.4736 20.4111 21.9424 20.9424C21.4111 21.4736 20.7505 21.75 20 21.75H7C6.24954 21.75 5.58884 21.4736 5.05762 20.9424C4.52645 20.4112 4.25 19.7505 4.25 19V17.75H4C3.24955 17.75 2.58884 17.4736 2.05762 16.9424C1.52645 16.4112 1.25 15.7505 1.25 15V7.15039C1.25 6.75152 1.36465 6.37571 1.56543 6.0332C1.778 5.67058 2.0765 5.38621 2.44727 5.18848L2.46484 5.17871L10.165 1.3291L10.5029 1.16016L10.8408 1.33203ZM13.8438 14.0166L13.5 14.1934L13.1562 14.0166L7.75 11.2305V11.542L13.5 14.5059L19.25 11.542V11.2305L13.8438 14.0166ZM4.75 7.93945V8.42188C4.84094 8.29496 4.9425 8.17274 5.05762 8.05762C5.58882 7.52642 6.24951 7.25 7 7.25H14.7598L10.4961 5.08887L4.75 7.93945Z" stroke="black" stroke-width="1.5"/>
</svg>
