<svg width="276" height="55" viewBox="0 0 276 55" fill="none" xmlns="http://www.w3.org/2000/svg">
<path fill-rule="evenodd" clip-rule="evenodd" d="M19.3663 35.0521H1.72233V16.9835H19.3609C17.5753 19.5482 16.5283 22.662 16.5283 26.0174C16.5283 29.3043 17.5566 32.4446 19.3663 35.0521Z" fill="#49734A"/>
<path fill-rule="evenodd" clip-rule="evenodd" d="M15.488 3.96144C15.488 4.35486 15.1008 4.67661 14.6279 4.67661H7.42166C6.94877 4.67661 6.56158 4.35486 6.56158 3.96144V2.62224C6.56158 2.2296 6.94877 1.90863 7.42166 1.90863H14.6279C15.1016 1.90863 15.4888 2.2296 15.4888 2.62224L15.488 3.96144Z" fill="black"/>
<path fill-rule="evenodd" clip-rule="evenodd" d="M11.2578 13.3624C11.2578 13.5993 11.0646 13.7932 10.827 13.7932H4.80489C4.56806 13.7932 4.37486 13.6 4.37486 13.3624V10.7814C4.37486 10.5446 4.56806 10.3514 4.80489 10.3514H10.8278C11.0646 10.3514 11.2586 10.5446 11.2586 10.7814V13.3624H11.2578Z" fill="black"/>
<path fill-rule="evenodd" clip-rule="evenodd" d="M60.3299 -0.00628662L54.9342 6.0493H42.5987L41.5072 2.26388C41.2688 1.43808 40.4407 0.814836 39.5814 0.814836H25.1681C24.3088 0.814836 23.4815 1.43808 23.2431 2.2631L22.1508 6.0493H4.30271C1.9305 6.0493 0 7.97824 0 10.3505V41.6856C0 44.0578 1.9305 45.9875 4.30271 45.9875H19.3478L13.2735 52.8034L14.9516 54.2992L62.008 1.48872L60.3299 -0.00628662ZM28.7261 34.5985C28.6466 34.558 28.5648 34.5198 28.4869 34.477C23.906 32.0136 22.1898 26.3039 24.6524 21.7231C26.5922 18.1168 30.542 16.2884 34.3711 16.8735C30.9721 16.9872 27.7234 18.8507 25.9963 22.0604C23.6614 26.4036 24.9118 31.7137 28.7261 34.5985ZM42.4631 20.045C40.4212 16.6024 36.667 14.294 32.3744 14.2948C25.8996 14.2948 20.6504 19.5441 20.6504 26.018C20.6504 30.7921 23.5048 34.8992 27.5988 36.7284L25.9363 38.5943C21.2479 36.1878 18.2501 31.3156 18.2501 26.018C18.2501 18.2298 24.5862 11.893 32.3744 11.893C37.1336 11.893 41.4947 14.2348 44.1264 18.1799L42.4631 20.045ZM32.3744 10.1713C26.9911 10.1713 22.2272 12.8699 19.361 16.9841C17.5755 19.548 16.5284 22.6618 16.5284 26.0172C16.5284 29.3041 17.5568 32.4444 19.3665 35.0519C20.7454 37.0416 22.5793 38.7197 24.7576 39.9163L20.8818 44.2658H4.30271C2.87938 44.2658 1.72171 43.1081 1.72171 41.6856V10.3505C1.72171 8.92712 2.87938 7.77023 4.30271 7.77023H23.4448L24.8954 2.74066C24.9204 2.65496 25.0785 2.53577 25.1681 2.53577H39.5806C39.671 2.53577 39.8284 2.65496 39.8525 2.74066L41.3039 7.77023H53.4018L45.3051 16.8563C42.3307 12.6541 37.5636 10.1713 32.3744 10.1713Z" fill="black"/>
<path d="M46.78 25.8C46.78 24.9333 46.9267 24.0867 47.22 23.26C47.5267 22.42 47.9667 21.66 48.54 20.98C49.1267 20.2867 49.84 19.74 50.68 19.34C51.52 18.9267 52.4733 18.72 53.54 18.72C54.8067 18.72 55.8933 19.0133 56.8 19.6C57.7067 20.1733 58.38 20.9133 58.82 21.82L57.4 22.74C57.12 22.14 56.76 21.6667 56.32 21.32C55.8933 20.96 55.4267 20.7067 54.92 20.56C54.4267 20.4133 53.94 20.34 53.46 20.34C52.6733 20.34 51.9733 20.5 51.36 20.82C50.76 21.14 50.2533 21.5667 49.84 22.1C49.4267 22.6333 49.1133 23.2333 48.9 23.9C48.7 24.5533 48.6 25.2133 48.6 25.88C48.6 26.6133 48.72 27.32 48.96 28C49.2133 28.68 49.56 29.28 50 29.8C50.44 30.32 50.96 30.7333 51.56 31.04C52.16 31.3467 52.8133 31.5 53.52 31.5C54.0133 31.5 54.52 31.4133 55.04 31.24C55.56 31.0667 56.0467 30.8 56.5 30.44C56.9533 30.0667 57.3133 29.5867 57.58 29L59.08 29.82C58.7867 30.5267 58.3333 31.1267 57.72 31.62C57.1067 32.1133 56.42 32.4867 55.66 32.74C54.9133 32.9933 54.1733 33.12 53.44 33.12C52.4667 33.12 51.5733 32.9133 50.76 32.5C49.9467 32.0733 49.24 31.5133 48.64 30.82C48.0533 30.1133 47.5933 29.3267 47.26 28.46C46.94 27.58 46.78 26.6933 46.78 25.8ZM65.4575 18.8H66.9775L72.7775 33H70.8575L69.1775 28.84H63.2175L61.5575 33H59.6375L65.4575 18.8ZM68.7775 27.44L66.2175 20.88L63.5775 27.44H68.7775ZM74.6727 33V18.8H80.5927C81.2193 18.8 81.7927 18.9333 82.3127 19.2C82.8327 19.4533 83.286 19.8 83.6727 20.24C84.0593 20.6667 84.3593 21.1533 84.5727 21.7C84.786 22.2333 84.8927 22.78 84.8927 23.34C84.8927 24.1133 84.7193 24.8533 84.3727 25.56C84.026 26.2533 83.5393 26.82 82.9127 27.26C82.286 27.6867 81.5527 27.9 80.7127 27.9H76.4727V33H74.6727ZM76.4727 26.3H80.6127C81.106 26.3 81.5327 26.1667 81.8927 25.9C82.266 25.6333 82.5527 25.2733 82.7527 24.82C82.966 24.3667 83.0727 23.8733 83.0727 23.34C83.0727 22.78 82.9527 22.28 82.7127 21.84C82.4727 21.3867 82.1593 21.0333 81.7727 20.78C81.386 20.5267 80.9593 20.4 80.4927 20.4H76.4727V26.3ZM97.3736 20.4H92.4736V33H90.6736V20.4H85.7736V18.8H97.3736V20.4ZM105.279 33.1C104.145 33.1 103.192 32.9067 102.419 32.52C101.645 32.12 101.025 31.5867 100.559 30.92C100.092 30.24 99.7521 29.4733 99.5388 28.62C99.3254 27.7667 99.2188 26.8867 99.2188 25.98V18.8H101.019V25.98C101.019 26.6733 101.085 27.3533 101.219 28.02C101.365 28.6733 101.599 29.26 101.919 29.78C102.239 30.3 102.672 30.7133 103.219 31.02C103.765 31.3267 104.445 31.48 105.259 31.48C106.085 31.48 106.772 31.3267 107.319 31.02C107.865 30.7 108.299 30.28 108.619 29.76C108.939 29.2267 109.165 28.6333 109.299 27.98C109.445 27.3267 109.519 26.66 109.519 25.98V18.8H111.319V25.98C111.319 26.94 111.205 27.8533 110.979 28.72C110.765 29.5733 110.419 30.3267 109.939 30.98C109.459 31.6333 108.832 32.1533 108.059 32.54C107.299 32.9133 106.372 33.1 105.279 33.1ZM114.516 33V18.8H120.596C121.223 18.8 121.796 18.9333 122.316 19.2C122.836 19.4533 123.29 19.8 123.676 20.24C124.063 20.6667 124.363 21.1533 124.576 21.7C124.79 22.2333 124.896 22.78 124.896 23.34C124.896 23.9933 124.77 24.6133 124.516 25.2C124.276 25.7867 123.93 26.2867 123.476 26.7C123.036 27.1133 122.516 27.4 121.916 27.56L125.356 33H123.316L120.076 27.9H116.316V33H114.516ZM116.316 26.3H120.616C121.11 26.3 121.536 26.1667 121.896 25.9C122.27 25.62 122.556 25.2533 122.756 24.8C122.97 24.3467 123.076 23.86 123.076 23.34C123.076 22.8067 122.956 22.32 122.716 21.88C122.476 21.4267 122.163 21.0667 121.776 20.8C121.39 20.5333 120.963 20.4 120.496 20.4H116.316V26.3ZM137.301 31.4V33H127.661V18.8H137.121V20.4H129.461V25H136.121V26.5H129.461V31.4H137.301Z" fill="black"/>
<path d="M164.98 33V22.16L160.3 30.5H159.2L154.5 22.16V33H152.7V18.8H154.6L159.74 28.02L164.9 18.8H166.78V33H164.98ZM174.94 33.1C173.94 33.1 173.034 32.9 172.22 32.5C171.407 32.1 170.7 31.56 170.1 30.88C169.514 30.1867 169.06 29.4133 168.74 28.56C168.42 27.6933 168.26 26.8067 168.26 25.9C168.26 24.9533 168.427 24.0533 168.76 23.2C169.107 22.3333 169.58 21.5667 170.18 20.9C170.794 20.22 171.507 19.6867 172.32 19.3C173.134 18.9 174.02 18.7 174.98 18.7C175.98 18.7 176.887 18.9067 177.7 19.32C178.514 19.7333 179.214 20.2867 179.8 20.98C180.387 21.6733 180.84 22.4467 181.16 23.3C181.48 24.1533 181.64 25.0267 181.64 25.92C181.64 26.8667 181.474 27.7733 181.14 28.64C180.807 29.4933 180.334 30.26 179.72 30.94C179.12 31.6067 178.414 32.1333 177.6 32.52C176.787 32.9067 175.9 33.1 174.94 33.1ZM170.08 25.9C170.08 26.62 170.194 27.32 170.42 28C170.66 28.6667 170.994 29.26 171.42 29.78C171.847 30.3 172.36 30.7133 172.96 31.02C173.56 31.3267 174.227 31.48 174.96 31.48C175.72 31.48 176.4 31.32 177 31C177.6 30.68 178.107 30.2533 178.52 29.72C178.947 29.1867 179.267 28.5867 179.48 27.92C179.707 27.2533 179.82 26.58 179.82 25.9C179.82 25.18 179.7 24.4867 179.46 23.82C179.234 23.1533 178.9 22.56 178.46 22.04C178.034 21.5067 177.52 21.0933 176.92 20.8C176.334 20.4933 175.68 20.34 174.96 20.34C174.2 20.34 173.52 20.5 172.92 20.82C172.32 21.1267 171.807 21.5467 171.38 22.08C170.967 22.6133 170.647 23.2133 170.42 23.88C170.194 24.5333 170.08 25.2067 170.08 25.9ZM195.421 33V22.16L190.741 30.5H189.641L184.941 22.16V33H183.141V18.8H185.041L190.181 28.02L195.341 18.8H197.221V33H195.421ZM209.262 31.4V33H199.622V18.8H209.082V20.4H201.422V25H208.082V26.5H201.422V31.4H209.262ZM212.531 22.12V33H210.731V18.8H212.251L220.931 29.9V18.82H222.731V33H221.091L212.531 22.12ZM235.362 20.4H230.462V33H228.662V20.4H223.762V18.8H235.362V20.4ZM244.747 21.78C244.587 21.5933 244.374 21.4133 244.107 21.24C243.84 21.0667 243.54 20.9133 243.207 20.78C242.874 20.6333 242.507 20.52 242.107 20.44C241.72 20.3467 241.314 20.3 240.887 20.3C239.794 20.3 238.987 20.5067 238.467 20.92C237.947 21.3333 237.687 21.9 237.687 22.62C237.687 23.1267 237.82 23.5267 238.087 23.82C238.354 24.1133 238.76 24.3533 239.307 24.54C239.867 24.7267 240.574 24.92 241.427 25.12C242.414 25.3333 243.267 25.5933 243.987 25.9C244.707 26.2067 245.26 26.62 245.647 27.14C246.034 27.6467 246.227 28.3267 246.227 29.18C246.227 29.86 246.094 30.4533 245.827 30.96C245.574 31.4533 245.214 31.8667 244.747 32.2C244.28 32.52 243.734 32.76 243.107 32.92C242.48 33.0667 241.8 33.14 241.067 33.14C240.347 33.14 239.64 33.0667 238.947 32.92C238.267 32.76 237.62 32.5333 237.007 32.24C236.394 31.9467 235.82 31.58 235.287 31.14L236.147 29.62C236.36 29.8467 236.634 30.0733 236.967 30.3C237.314 30.5133 237.7 30.7133 238.127 30.9C238.567 31.0867 239.04 31.24 239.547 31.36C240.054 31.4667 240.574 31.52 241.107 31.52C242.12 31.52 242.907 31.34 243.467 30.98C244.027 30.6067 244.307 30.0667 244.307 29.36C244.307 28.8267 244.147 28.4 243.827 28.08C243.52 27.76 243.06 27.4933 242.447 27.28C241.834 27.0667 241.087 26.8533 240.207 26.64C239.247 26.4 238.44 26.14 237.787 25.86C237.134 25.5667 236.64 25.1867 236.307 24.72C235.987 24.2533 235.827 23.6467 235.827 22.9C235.827 21.9933 236.047 21.2267 236.487 20.6C236.927 19.9733 237.534 19.5 238.307 19.18C239.08 18.86 239.954 18.7 240.927 18.7C241.567 18.7 242.16 18.7667 242.707 18.9C243.267 19.0333 243.787 19.22 244.267 19.46C244.747 19.7 245.187 19.9867 245.587 20.32L244.747 21.78Z" fill="black"/>
</svg>
