<svg width="173" height="70" viewBox="0 0 173 70" fill="none" xmlns="http://www.w3.org/2000/svg">
<path fill-rule="evenodd" clip-rule="evenodd" d="M24.8587 45.0014H2.2107V21.8083H24.8517C22.5597 25.1003 21.2157 29.0974 21.2157 33.4044C21.2157 37.6234 22.5357 41.6544 24.8587 45.0014Z" fill="#49734A"/>
<path fill-rule="evenodd" clip-rule="evenodd" d="M19.8804 5.09301C19.8804 5.59801 19.3834 6.01101 18.7764 6.01101H9.5264C8.9194 6.01101 8.4224 5.59801 8.4224 5.09301V3.37401C8.4224 2.87001 8.9194 2.45801 9.5264 2.45801H18.7764C19.3844 2.45801 19.8814 2.87001 19.8814 3.37401L19.8804 5.09301Z" fill="black"/>
<path fill-rule="evenodd" clip-rule="evenodd" d="M14.4505 17.1602C14.4505 17.4642 14.2025 17.7132 13.8975 17.7132H6.1675C5.8635 17.7132 5.6155 17.4652 5.6155 17.1602V13.8472C5.6155 13.5432 5.8635 13.2952 6.1675 13.2952H13.8985C14.2025 13.2952 14.4515 13.5432 14.4515 13.8472V17.1602H14.4505Z" fill="black"/>
<path fill-rule="evenodd" clip-rule="evenodd" d="M77.4399 0L70.5139 7.773H54.6799L53.2789 2.914C52.9729 1.854 51.9099 1.054 50.8069 1.054H32.3059C31.2029 1.054 30.1409 1.854 29.8349 2.913L28.4329 7.773H5.5229C2.4779 7.773 -0.000100017 10.249 -0.000100017 13.294V53.516C-0.000100017 56.561 2.4779 59.038 5.5229 59.038H24.8349L17.0379 67.787L19.1919 69.707L79.5939 1.919L77.4399 0ZM36.8729 44.419C36.7709 44.367 36.6659 44.318 36.5659 44.263C30.6859 41.101 28.4829 33.772 31.6439 27.892C34.1339 23.263 39.2039 20.916 44.1189 21.667C39.7559 21.813 35.5859 24.205 33.3689 28.325C30.3719 33.9 31.9769 40.716 36.8729 44.419ZM54.5059 25.738C51.8849 21.319 47.0659 18.356 41.5559 18.357C33.2449 18.357 26.5069 25.095 26.5069 33.405C26.5069 39.533 30.1709 44.805 35.4259 47.153L33.2919 49.548C27.2739 46.459 23.4259 40.205 23.4259 33.405C23.4259 23.408 31.5589 15.274 41.5559 15.274C47.6649 15.274 53.2629 18.28 56.6409 23.344L54.5059 25.738ZM41.5559 13.064C34.6459 13.064 28.5309 16.528 24.8519 21.809C22.5599 25.1 21.2159 29.097 21.2159 33.404C21.2159 37.623 22.5359 41.654 24.8589 45.001C26.6289 47.555 28.9829 49.709 31.7789 51.245L26.8039 56.828H5.5229C3.6959 56.828 2.2099 55.342 2.2099 53.516V13.294C2.2099 11.467 3.6959 9.982 5.5229 9.982H30.0939L31.9559 3.526C31.9879 3.416 32.1909 3.263 32.3059 3.263H50.8059C50.9219 3.263 51.1239 3.416 51.1549 3.526L53.0179 9.982H68.5469L58.1539 21.645C54.3359 16.251 48.2169 13.064 41.5559 13.064Z" fill="black"/>
<path d="M62.72 50V37.78L57.14 47.34H56.46L50.88 37.78V50H49.86V35.8H50.88L56.8 45.96L62.72 35.8H63.74V50H62.72ZM72.1177 50.1C71.131 50.1 70.231 49.9 69.4177 49.5C68.6043 49.0867 67.9043 48.54 67.3177 47.86C66.731 47.18 66.2777 46.4133 65.9577 45.56C65.6377 44.6933 65.4777 43.8067 65.4777 42.9C65.4777 41.9533 65.6443 41.0533 65.9777 40.2C66.311 39.3333 66.7777 38.5667 67.3777 37.9C67.991 37.22 68.6977 36.6867 69.4977 36.3C70.311 35.9 71.191 35.7 72.1377 35.7C73.1377 35.7 74.0377 35.9067 74.8377 36.32C75.651 36.7333 76.351 37.2867 76.9377 37.98C77.5243 38.6733 77.9777 39.4467 78.2977 40.3C78.6177 41.1533 78.7777 42.02 78.7777 42.9C78.7777 43.86 78.611 44.7733 78.2777 45.64C77.9443 46.4933 77.471 47.26 76.8577 47.94C76.2577 48.6067 75.551 49.1333 74.7377 49.52C73.9377 49.9067 73.0643 50.1 72.1177 50.1ZM66.4977 42.9C66.4977 43.7133 66.6377 44.4933 66.9177 45.24C67.1977 45.9867 67.5843 46.6533 68.0777 47.24C68.5843 47.8267 69.1777 48.2933 69.8577 48.64C70.551 48.9867 71.311 49.16 72.1377 49.16C72.9777 49.16 73.7443 48.98 74.4377 48.62C75.131 48.26 75.7243 47.78 76.2177 47.18C76.711 46.58 77.0843 45.9133 77.3377 45.18C77.6043 44.4333 77.7377 43.6733 77.7377 42.9C77.7377 42.0867 77.5977 41.3067 77.3177 40.56C77.051 39.8133 76.6643 39.1467 76.1577 38.56C75.651 37.9733 75.051 37.5067 74.3577 37.16C73.6777 36.8133 72.9377 36.64 72.1377 36.64C71.2843 36.64 70.511 36.82 69.8177 37.18C69.1243 37.54 68.531 38.02 68.0377 38.62C67.5577 39.22 67.1777 39.8933 66.8977 40.64C66.631 41.3733 66.4977 42.1267 66.4977 42.9ZM93.3763 50V37.78L87.7963 47.34H87.1163L81.5363 37.78V50H80.5163V35.8H81.5363L87.4563 45.96L93.3763 35.8H94.3963V50H93.3763ZM106.574 49.08V50H97.1139V35.8H106.394V36.72H98.1339V42.3H105.354V43.18H98.1339V49.08H106.574ZM109.38 37.7V50H108.36V35.8H109.2L119.1 48.3V35.8H120.12V50H119.12L109.38 37.7ZM132.749 36.72H127.549V50H126.529V36.72H121.329V35.8H132.749V36.72ZM142.218 38.16C141.991 37.9067 141.738 37.6867 141.458 37.5C141.178 37.3 140.878 37.14 140.558 37.02C140.238 36.8867 139.891 36.7867 139.518 36.72C139.144 36.6533 138.744 36.62 138.318 36.62C136.931 36.62 135.918 36.8867 135.278 37.42C134.651 37.94 134.338 38.6467 134.338 39.54C134.338 40.14 134.478 40.62 134.758 40.98C135.051 41.3267 135.504 41.6067 136.118 41.82C136.731 42.0333 137.524 42.24 138.498 42.44C139.524 42.6533 140.411 42.9067 141.158 43.2C141.904 43.48 142.478 43.8667 142.878 44.36C143.291 44.8533 143.498 45.52 143.498 46.36C143.498 46.9867 143.378 47.54 143.138 48.02C142.898 48.4867 142.551 48.8733 142.098 49.18C141.644 49.4867 141.104 49.72 140.478 49.88C139.864 50.04 139.178 50.12 138.418 50.12C137.684 50.12 136.984 50.04 136.318 49.88C135.651 49.72 135.024 49.4867 134.438 49.18C133.851 48.8733 133.304 48.48 132.798 48L133.338 47.18C133.631 47.5 133.958 47.7867 134.318 48.04C134.691 48.28 135.091 48.4867 135.518 48.66C135.958 48.8333 136.424 48.9733 136.918 49.08C137.411 49.1733 137.924 49.22 138.458 49.22C139.698 49.22 140.664 48.9933 141.358 48.54C142.064 48.0733 142.418 47.3867 142.418 46.48C142.418 45.8533 142.258 45.3467 141.938 44.96C141.618 44.5733 141.124 44.26 140.458 44.02C139.791 43.7667 138.958 43.5333 137.958 43.32C136.958 43.1067 136.104 42.8667 135.398 42.6C134.704 42.3333 134.178 41.9733 133.818 41.52C133.471 41.0667 133.298 40.4533 133.298 39.68C133.298 38.8267 133.504 38.1067 133.918 37.52C134.344 36.92 134.938 36.4667 135.698 36.16C136.458 35.8533 137.331 35.7 138.318 35.7C138.931 35.7 139.498 35.76 140.018 35.88C140.551 36 141.038 36.1867 141.478 36.44C141.931 36.68 142.351 36.9867 142.738 37.36L142.218 38.16Z" fill="black"/>
<path d="M65.2306 25.8C65.2306 24.9333 65.3773 24.0867 65.6706 23.26C65.9773 22.42 66.4173 21.66 66.9906 20.98C67.564 20.2867 68.2706 19.74 69.1106 19.34C69.9506 18.9267 70.904 18.72 71.9706 18.72C73.2373 18.72 74.3173 19.0133 75.2106 19.6C76.1173 20.1733 76.784 20.9133 77.2106 21.82L76.1106 22.5C75.804 21.8733 75.4173 21.38 74.9506 21.02C74.484 20.6467 73.984 20.38 73.4506 20.22C72.9306 20.06 72.4106 19.98 71.8906 19.98C71.0373 19.98 70.284 20.1533 69.6306 20.5C68.9773 20.8333 68.424 21.2867 67.9706 21.86C67.5306 22.42 67.1973 23.0533 66.9706 23.76C66.744 24.4533 66.6306 25.16 66.6306 25.88C66.6306 26.6667 66.764 27.42 67.0306 28.14C67.2973 28.86 67.6706 29.5 68.1506 30.06C68.6306 30.6067 69.1906 31.0467 69.8306 31.38C70.484 31.7 71.1906 31.86 71.9506 31.86C72.484 31.86 73.0306 31.7667 73.5906 31.58C74.1506 31.3933 74.6706 31.1067 75.1506 30.72C75.644 30.3333 76.0373 29.8333 76.3306 29.22L77.4906 29.82C77.1973 30.5267 76.744 31.1267 76.1306 31.62C75.5173 32.1133 74.8306 32.4867 74.0706 32.74C73.324 32.9933 72.5906 33.12 71.8706 33.12C70.8973 33.12 70.004 32.9133 69.1906 32.5C68.3773 32.0733 67.6706 31.5133 67.0706 30.82C66.484 30.1133 66.0306 29.3267 65.7106 28.46C65.3906 27.58 65.2306 26.6933 65.2306 25.8ZM84.0863 18.8H85.2663L91.1663 33H89.6863L87.8463 28.56H81.4663L79.6463 33H78.1463L84.0863 18.8ZM87.5263 27.46L84.6663 20.44L81.7663 27.46H87.5263ZM93.2019 33V18.8H99.0819C99.6952 18.8 100.255 18.9267 100.762 19.18C101.282 19.4333 101.729 19.78 102.102 20.22C102.475 20.6467 102.769 21.1267 102.982 21.66C103.195 22.18 103.302 22.7133 103.302 23.26C103.302 24.0333 103.129 24.7667 102.782 25.46C102.449 26.14 101.975 26.6933 101.362 27.12C100.749 27.5467 100.029 27.76 99.2019 27.76H94.6019V33H93.2019ZM94.6019 26.52H99.1419C99.7019 26.52 100.189 26.3667 100.602 26.06C101.015 25.7533 101.335 25.3533 101.562 24.86C101.789 24.3667 101.902 23.8333 101.902 23.26C101.902 22.6733 101.769 22.1333 101.502 21.64C101.235 21.1467 100.882 20.76 100.442 20.48C100.015 20.1867 99.5419 20.04 99.0219 20.04H94.6019V26.52ZM115.723 20.04H110.663V33H109.263V20.04H104.203V18.8H115.723V20.04ZM123.63 33.1C122.51 33.1 121.564 32.9 120.79 32.5C120.017 32.1 119.404 31.5667 118.95 30.9C118.497 30.22 118.164 29.4533 117.95 28.6C117.75 27.7467 117.65 26.8667 117.65 25.96V18.8H119.03V25.96C119.03 26.6933 119.104 27.4133 119.25 28.12C119.41 28.8267 119.664 29.46 120.01 30.02C120.357 30.58 120.824 31.0267 121.41 31.36C121.997 31.68 122.73 31.84 123.61 31.84C124.517 31.84 125.264 31.6733 125.85 31.34C126.45 30.9933 126.917 30.54 127.25 29.98C127.597 29.42 127.844 28.7933 127.99 28.1C128.137 27.3933 128.21 26.68 128.21 25.96V18.8H129.61V25.96C129.61 26.9067 129.504 27.8133 129.29 28.68C129.077 29.5467 128.73 30.3067 128.25 30.96C127.784 31.6133 127.17 32.1333 126.41 32.52C125.65 32.9067 124.724 33.1 123.63 33.1ZM132.948 33V18.8H138.948C139.561 18.8 140.121 18.9267 140.628 19.18C141.135 19.4333 141.575 19.78 141.948 20.22C142.335 20.6467 142.628 21.1267 142.828 21.66C143.041 22.18 143.148 22.7133 143.148 23.26C143.148 23.94 143.015 24.58 142.748 25.18C142.495 25.78 142.128 26.2867 141.648 26.7C141.181 27.1133 140.628 27.3867 139.988 27.52L143.468 33H141.888L138.548 27.76H134.348V33H132.948ZM134.348 26.52H138.988C139.548 26.52 140.035 26.3667 140.448 26.06C140.861 25.7533 141.181 25.3533 141.408 24.86C141.635 24.3533 141.748 23.82 141.748 23.26C141.748 22.6867 141.615 22.16 141.348 21.68C141.095 21.1867 140.748 20.7933 140.308 20.5C139.881 20.1933 139.401 20.04 138.868 20.04H134.348V26.52ZM155.554 31.76V33H146.014V18.8H155.374V20.04H147.414V25.16H154.354V26.34H147.414V31.76H155.554Z" fill="black"/>
</svg>
