<svg width="18" height="24" viewBox="0 0 18 24" fill="none" xmlns="http://www.w3.org/2000/svg">
<path d="M9 1.25C9.91031 1.25 10.8216 1.41729 11.7295 1.74414C12.6551 2.07742 13.4888 2.57826 14.2266 3.24219C14.9736 3.91453 15.576 4.74328 16.0391 5.71484C16.5207 6.7253 16.75 7.87722 16.75 9.15039C16.7499 10.9107 16.0971 12.6591 14.874 14.3838C14.4793 14.9404 14.0212 15.4982 13.502 16.0586L13.9219 16.2988C14.4562 16.6042 14.9038 16.9735 15.2305 17.4199C15.5727 17.8878 15.75 18.4214 15.75 19C15.75 20.2805 14.9109 21.2077 13.6602 21.833C12.4053 22.4604 10.8379 22.75 9 22.75C7.16214 22.75 5.59468 22.4604 4.33984 21.833C3.08919 21.2077 2.25 20.2805 2.25 19C2.25 18.4374 2.42317 17.9162 2.75 17.4541C3.06525 17.0084 3.49105 16.6443 4 16.3506L4.48145 16.0723L4.7207 16.2959C4.1085 15.656 3.5763 15.0188 3.12598 14.3838C1.90284 12.6591 1.2501 10.9107 1.25 9.15039C1.25 7.87722 1.47932 6.7253 1.96094 5.71484C2.42405 4.74327 3.0264 3.91452 3.77344 3.24219C4.5112 2.57826 5.34486 2.07742 6.27051 1.74414C7.17843 1.41729 8.08969 1.25 9 1.25ZM7.28809 18.7012L6.69727 18.9629C6.70992 18.9662 6.72247 18.9703 6.73535 18.9736C7.15102 19.0798 7.57851 19.1541 8.01758 19.1992C7.52372 18.822 7.05632 18.4455 6.61523 18.0703L7.28809 18.7012ZM10.8721 18.4971C10.5854 18.7308 10.2884 18.9647 9.98145 19.1992C10.4239 19.1541 10.8562 19.0793 11.2783 18.9727C11.2799 18.9723 11.2817 18.9711 11.2832 18.9707L10.6465 18.7158L10.8721 18.4971ZM9 7.75C8.65049 7.75 8.3703 7.86602 8.11816 8.11816C7.86602 8.3703 7.75 8.65049 7.75 9C7.75 9.34951 7.86603 9.6297 8.11816 9.88184C8.3703 10.134 8.65049 10.25 9 10.25C9.34951 10.25 9.6297 10.134 9.88184 9.88184C10.134 9.6297 10.25 9.34951 10.25 9C10.25 8.65049 10.134 8.3703 9.88184 8.11816C9.6297 7.86603 9.34951 7.75 9 7.75Z" stroke="black" stroke-width="1.5"/>
</svg>
