<svg width="178" height="70" viewBox="0 0 178 70" fill="none" xmlns="http://www.w3.org/2000/svg">
<g clip-path="url(#clip0_4_60)">
<path fill-rule="evenodd" clip-rule="evenodd" d="M159.609 45.0013H185.101V21.8083H159.617C162.197 25.1003 163.71 29.0973 163.71 33.4043C163.71 37.6233 162.224 41.6543 159.609 45.0013Z" fill="#49734A"/>
<path fill-rule="evenodd" clip-rule="evenodd" d="M165.213 5.09301C165.213 5.59801 165.772 6.01101 166.455 6.01101H176.867C177.55 6.01101 178.11 5.59801 178.11 5.09301V3.37401C178.11 2.87001 177.55 2.45801 176.867 2.45801H166.455C165.771 2.45801 165.212 2.87001 165.212 3.37401L165.213 5.09301Z" fill="black"/>
<path fill-rule="evenodd" clip-rule="evenodd" d="M171.324 17.1602C171.324 17.4642 171.604 17.7132 171.947 17.7132H180.648C180.99 17.7132 181.269 17.4652 181.269 17.1602V13.8472C181.269 13.5432 180.99 13.2952 180.648 13.2952H171.946C171.604 13.2952 171.323 13.5432 171.323 13.8472V17.1602H171.324Z" fill="black"/>
<path fill-rule="evenodd" clip-rule="evenodd" d="M100.424 0L108.22 7.773H126.043L127.62 2.914C127.964 1.854 129.161 1.054 130.402 1.054H151.227C152.468 1.054 153.664 1.854 154.008 2.913L155.586 7.773H181.373C184.801 7.773 187.59 10.249 187.59 13.294V53.516C187.59 56.561 184.801 59.038 181.373 59.038H159.636L168.412 67.787L165.988 69.707L97.9999 1.919L100.424 0ZM146.086 44.419C146.201 44.367 146.319 44.318 146.432 44.263C153.05 41.101 155.53 33.772 151.972 27.892C149.169 23.263 143.462 20.916 137.93 21.667C142.841 21.813 147.535 24.205 150.03 28.325C153.404 33.9 151.597 40.716 146.086 44.419ZM126.239 25.738C129.189 21.319 134.613 18.356 140.815 18.357C150.17 18.357 157.754 25.095 157.754 33.405C157.754 39.533 153.63 44.805 147.715 47.153L150.117 49.548C156.891 46.459 161.222 40.205 161.222 33.405C161.222 23.408 152.067 15.274 140.815 15.274C133.939 15.274 127.638 18.28 123.835 23.344L126.239 25.738ZM140.815 13.064C148.593 13.064 155.476 16.528 159.617 21.809C162.197 25.1 163.709 29.097 163.709 33.404C163.709 37.623 162.224 41.654 159.609 45.001C157.617 47.555 154.967 49.709 151.82 51.245L157.42 56.828H181.373C183.43 56.828 185.102 55.342 185.102 53.516V13.294C185.102 11.467 183.43 9.982 181.373 9.982H153.716L151.621 3.526C151.585 3.416 151.356 3.263 151.227 3.263H130.403C130.273 3.263 130.045 3.416 130.01 3.526L127.913 9.982H110.434L122.132 21.645C126.43 16.251 133.317 13.064 140.815 13.064Z" fill="#49734A"/>
</g>
<path d="M0.84 27.6C0.84 25.952 1.208 24.48 1.944 23.184C2.696 21.872 3.712 20.856 4.992 20.136C6.288 19.4 7.736 19.032 9.336 19.032C11.208 19.032 12.848 19.512 14.256 20.472C15.664 21.432 16.648 22.76 17.208 24.456H13.344C12.96 23.656 12.416 23.056 11.712 22.656C11.024 22.256 10.224 22.056 9.312 22.056C8.336 22.056 7.464 22.288 6.696 22.752C5.944 23.2 5.352 23.84 4.92 24.672C4.504 25.504 4.296 26.48 4.296 27.6C4.296 28.704 4.504 29.68 4.92 30.528C5.352 31.36 5.944 32.008 6.696 32.472C7.464 32.92 8.336 33.144 9.312 33.144C10.224 33.144 11.024 32.944 11.712 32.544C12.416 32.128 12.96 31.52 13.344 30.72H17.208C16.648 32.432 15.664 33.768 14.256 34.728C12.864 35.672 11.224 36.144 9.336 36.144C7.736 36.144 6.288 35.784 4.992 35.064C3.712 34.328 2.696 33.312 1.944 32.016C1.208 30.72 0.84 29.248 0.84 27.6ZM30.3499 32.808H23.6779L22.5739 36H19.0459L25.0699 19.224H28.9819L35.0059 36H31.4539L30.3499 32.808ZM29.4379 30.12L27.0139 23.112L24.5899 30.12H29.4379ZM49.4736 24.432C49.4736 25.328 49.2576 26.168 48.8256 26.952C48.4096 27.736 47.7456 28.368 46.8336 28.848C45.9376 29.328 44.8016 29.568 43.4256 29.568H40.6176V36H37.2576V19.248H43.4256C44.7216 19.248 45.8256 19.472 46.7376 19.92C47.6496 20.368 48.3296 20.984 48.7776 21.768C49.2416 22.552 49.4736 23.44 49.4736 24.432ZM43.2816 26.856C44.2096 26.856 44.8976 26.648 45.3456 26.232C45.7936 25.8 46.0176 25.2 46.0176 24.432C46.0176 22.8 45.1056 21.984 43.2816 21.984H40.6176V26.856H43.2816ZM63.2591 19.248V21.96H58.7951V36H55.4351V21.96H50.9711V19.248H63.2591ZM69.0227 19.248V29.616C69.0227 30.752 69.3187 31.624 69.9107 32.232C70.5027 32.824 71.3347 33.12 72.4067 33.12C73.4947 33.12 74.3347 32.824 74.9267 32.232C75.5187 31.624 75.8147 30.752 75.8147 29.616V19.248H79.1987V29.592C79.1987 31.016 78.8867 32.224 78.2627 33.216C77.6547 34.192 76.8307 34.928 75.7907 35.424C74.7667 35.92 73.6227 36.168 72.3587 36.168C71.1107 36.168 69.9747 35.92 68.9507 35.424C67.9427 34.928 67.1427 34.192 66.5507 33.216C65.9587 32.224 65.6627 31.016 65.6627 29.592V19.248H69.0227ZM91.0851 36L87.3891 29.472H85.8051V36H82.4451V19.248H88.7331C90.0291 19.248 91.1331 19.48 92.0451 19.944C92.9571 20.392 93.6371 21.008 94.0851 21.792C94.5491 22.56 94.7811 23.424 94.7811 24.384C94.7811 25.488 94.4611 26.488 93.8211 27.384C93.1811 28.264 92.2291 28.872 90.9651 29.208L94.9731 36H91.0851ZM85.8051 26.952H88.6131C89.5251 26.952 90.2051 26.736 90.6531 26.304C91.1011 25.856 91.3251 25.24 91.3251 24.456C91.3251 23.688 91.1011 23.096 90.6531 22.68C90.2051 22.248 89.5251 22.032 88.6131 22.032H85.8051V26.952ZM101.18 21.96V26.16H106.82V28.824H101.18V33.264H107.54V36H97.8201V19.224H107.54V21.96H101.18Z" fill="black"/>
<path d="M47.324 37.68C48.2773 37.68 49.128 37.878 49.876 38.274C50.6387 38.67 51.2327 39.2567 51.658 40.034C52.098 40.8113 52.318 41.75 52.318 42.85V50H49.832V43.224C49.832 42.1387 49.5607 41.31 49.018 40.738C48.4753 40.1513 47.7347 39.858 46.796 39.858C45.8573 39.858 45.1093 40.1513 44.552 40.738C44.0093 41.31 43.738 42.1387 43.738 43.224V50H41.252V43.224C41.252 42.1387 40.9807 41.31 40.438 40.738C39.8953 40.1513 39.1547 39.858 38.216 39.858C37.2773 39.858 36.5293 40.1513 35.972 40.738C35.4293 41.31 35.158 42.1387 35.158 43.224V50H32.65V37.878H35.158V39.264C35.5687 38.7653 36.0893 38.3767 36.72 38.098C37.3507 37.8193 38.0253 37.68 38.744 37.68C39.712 37.68 40.5773 37.8853 41.34 38.296C42.1027 38.7067 42.6893 39.3007 43.1 40.078C43.4667 39.3447 44.0387 38.7653 44.816 38.34C45.5933 37.9 46.4293 37.68 47.324 37.68ZM59.6674 50.198C58.5234 50.198 57.4894 49.9413 56.5654 49.428C55.6414 48.9 54.9154 48.1667 54.3874 47.228C53.8594 46.2747 53.5954 45.1747 53.5954 43.928C53.5954 42.696 53.8667 41.6033 54.4094 40.65C54.952 39.6967 55.6927 38.9633 56.6314 38.45C57.57 37.9367 58.6187 37.68 59.7774 37.68C60.936 37.68 61.9847 37.9367 62.9234 38.45C63.862 38.9633 64.6027 39.6967 65.1454 40.65C65.688 41.6033 65.9594 42.696 65.9594 43.928C65.9594 45.16 65.6807 46.2527 65.1234 47.206C64.566 48.1593 63.8034 48.9 62.8354 49.428C61.882 49.9413 60.826 50.198 59.6674 50.198ZM59.6674 48.02C60.3127 48.02 60.914 47.866 61.4714 47.558C62.0434 47.25 62.5054 46.788 62.8574 46.172C63.2094 45.556 63.3854 44.808 63.3854 43.928C63.3854 43.048 63.2167 42.3073 62.8794 41.706C62.542 41.09 62.0947 40.628 61.5374 40.32C60.98 40.012 60.3787 39.858 59.7334 39.858C59.088 39.858 58.4867 40.012 57.9294 40.32C57.3867 40.628 56.954 41.09 56.6314 41.706C56.3087 42.3073 56.1474 43.048 56.1474 43.928C56.1474 45.2333 56.4774 46.2453 57.1374 46.964C57.812 47.668 58.6554 48.02 59.6674 48.02ZM82.0127 37.68C82.966 37.68 83.8167 37.878 84.5647 38.274C85.3273 38.67 85.9213 39.2567 86.3467 40.034C86.7867 40.8113 87.0067 41.75 87.0067 42.85V50H84.5207V43.224C84.5207 42.1387 84.2493 41.31 83.7067 40.738C83.164 40.1513 82.4233 39.858 81.4847 39.858C80.546 39.858 79.798 40.1513 79.2407 40.738C78.698 41.31 78.4267 42.1387 78.4267 43.224V50H75.9407V43.224C75.9407 42.1387 75.6693 41.31 75.1267 40.738C74.584 40.1513 73.8433 39.858 72.9047 39.858C71.966 39.858 71.218 40.1513 70.6607 40.738C70.118 41.31 69.8467 42.1387 69.8467 43.224V50H67.3387V37.878H69.8467V39.264C70.2573 38.7653 70.778 38.3767 71.4087 38.098C72.0393 37.8193 72.714 37.68 73.4327 37.68C74.4007 37.68 75.266 37.8853 76.0287 38.296C76.7913 38.7067 77.378 39.3007 77.7887 40.078C78.1553 39.3447 78.7273 38.7653 79.5047 38.34C80.282 37.9 81.118 37.68 82.0127 37.68ZM100.208 43.642C100.208 44.0967 100.179 44.5073 100.12 44.874H90.858C90.9314 45.842 91.2907 46.6193 91.936 47.206C92.5814 47.7927 93.3734 48.086 94.312 48.086C95.6614 48.086 96.6147 47.5213 97.172 46.392H99.878C99.5114 47.5067 98.844 48.4233 97.876 49.142C96.9227 49.846 95.7347 50.198 94.312 50.198C93.1534 50.198 92.112 49.9413 91.188 49.428C90.2787 48.9 89.56 48.1667 89.032 47.228C88.5187 46.2747 88.262 45.1747 88.262 43.928C88.262 42.6813 88.5114 41.5887 89.01 40.65C89.5234 39.6967 90.2347 38.9633 91.144 38.45C92.068 37.9367 93.124 37.68 94.312 37.68C95.456 37.68 96.4754 37.9293 97.37 38.428C98.2647 38.9267 98.9614 39.6307 99.46 40.54C99.9587 41.4347 100.208 42.4687 100.208 43.642ZM97.59 42.85C97.5754 41.926 97.2454 41.1853 96.6 40.628C95.9547 40.0707 95.1554 39.792 94.202 39.792C93.3367 39.792 92.596 40.0707 91.98 40.628C91.364 41.1707 90.9974 41.9113 90.88 42.85H97.59ZM107.692 37.68C108.646 37.68 109.496 37.878 110.244 38.274C111.007 38.67 111.601 39.2567 112.026 40.034C112.452 40.8113 112.664 41.75 112.664 42.85V50H110.178V43.224C110.178 42.1387 109.907 41.31 109.364 40.738C108.822 40.1513 108.081 39.858 107.142 39.858C106.204 39.858 105.456 40.1513 104.898 40.738C104.356 41.31 104.084 42.1387 104.084 43.224V50H101.576V37.878H104.084V39.264C104.495 38.7653 105.016 38.3767 105.646 38.098C106.292 37.8193 106.974 37.68 107.692 37.68ZM117.689 39.924V46.634C117.689 47.0887 117.792 47.4187 117.997 47.624C118.217 47.8147 118.584 47.91 119.097 47.91H120.637V50H118.657C117.528 50 116.663 49.736 116.061 49.208C115.46 48.68 115.159 47.822 115.159 46.634V39.924H113.729V37.878H115.159V34.864H117.689V37.878H120.637V39.924H117.689ZM126.249 50.198C125.295 50.198 124.437 50.0293 123.675 49.692C122.927 49.34 122.333 48.8707 121.893 48.284C121.453 47.6827 121.218 47.0153 121.189 46.282H123.785C123.829 46.7953 124.071 47.228 124.511 47.58C124.965 47.9173 125.53 48.086 126.205 48.086C126.909 48.086 127.451 47.954 127.833 47.69C128.229 47.4113 128.427 47.0593 128.427 46.634C128.427 46.1793 128.207 45.842 127.767 45.622C127.341 45.402 126.659 45.16 125.721 44.896C124.811 44.6467 124.071 44.4047 123.499 44.17C122.927 43.9353 122.428 43.576 122.003 43.092C121.592 42.608 121.387 41.97 121.387 41.178C121.387 40.5327 121.577 39.946 121.959 39.418C122.34 38.8753 122.883 38.45 123.587 38.142C124.305 37.834 125.127 37.68 126.051 37.68C127.429 37.68 128.537 38.032 129.373 38.736C130.223 39.4253 130.678 40.3713 130.737 41.574H128.229C128.185 41.0313 127.965 40.5987 127.569 40.276C127.173 39.9533 126.637 39.792 125.963 39.792C125.303 39.792 124.797 39.9167 124.445 40.166C124.093 40.4153 123.917 40.7453 123.917 41.156C123.917 41.4787 124.034 41.75 124.269 41.97C124.503 42.19 124.789 42.366 125.127 42.498C125.464 42.6153 125.963 42.7693 126.623 42.96C127.503 43.1947 128.221 43.4367 128.779 43.686C129.351 43.9207 129.842 44.2727 130.253 44.742C130.663 45.2113 130.876 45.8347 130.891 46.612C130.891 47.3013 130.7 47.9173 130.319 48.46C129.937 49.0027 129.395 49.428 128.691 49.736C128.001 50.044 127.187 50.198 126.249 50.198Z" fill="black"/>
<defs>
<clipPath id="clip0_4_60">
<rect width="80" height="70" fill="white" transform="translate(98)"/>
</clipPath>
</defs>
</svg>
