<svg width="182" height="70" viewBox="0 0 182 70" fill="none" xmlns="http://www.w3.org/2000/svg">
<path fill-rule="evenodd" clip-rule="evenodd" d="M156.735 45.0013H179.383V21.8083H156.742C159.034 25.1003 160.378 29.0973 160.378 33.4043C160.378 37.6233 159.058 41.6543 156.735 45.0013Z" fill="#49734A"/>
<path fill-rule="evenodd" clip-rule="evenodd" d="M161.714 5.09301C161.714 5.59801 162.211 6.01101 162.818 6.01101H172.068C172.675 6.01101 173.172 5.59801 173.172 5.09301V3.37401C173.172 2.87001 172.675 2.45801 172.068 2.45801H162.818C162.21 2.45801 161.713 2.87001 161.713 3.37401L161.714 5.09301Z" fill="black"/>
<path fill-rule="evenodd" clip-rule="evenodd" d="M167.143 17.1602C167.143 17.4642 167.391 17.7132 167.696 17.7132H175.426C175.73 17.7132 175.978 17.4652 175.978 17.1602V13.8472C175.978 13.5432 175.73 13.2952 175.426 13.2952H167.695C167.391 13.2952 167.142 13.5432 167.142 13.8472V17.1602H167.143Z" fill="black"/>
<path fill-rule="evenodd" clip-rule="evenodd" d="M104.154 0L111.08 7.773H126.914L128.315 2.914C128.621 1.854 129.684 1.054 130.787 1.054H149.288C150.391 1.054 151.453 1.854 151.759 2.913L153.161 7.773H176.071C179.116 7.773 181.594 10.249 181.594 13.294V53.516C181.594 56.561 179.116 59.038 176.071 59.038H156.759L164.556 67.787L162.402 69.707L102 1.919L104.154 0ZM144.721 44.419C144.823 44.367 144.928 44.318 145.028 44.263C150.908 41.101 153.111 33.772 149.95 27.892C147.46 23.263 142.39 20.916 137.475 21.667C141.838 21.813 146.008 24.205 148.225 28.325C151.222 33.9 149.617 40.716 144.721 44.419ZM127.088 25.738C129.709 21.319 134.528 18.356 140.038 18.357C148.349 18.357 155.087 25.095 155.087 33.405C155.087 39.533 151.423 44.805 146.168 47.153L148.302 49.548C154.32 46.459 158.168 40.205 158.168 33.405C158.168 23.408 150.035 15.274 140.038 15.274C133.929 15.274 128.331 18.28 124.953 23.344L127.088 25.738ZM140.038 13.064C146.948 13.064 153.063 16.528 156.742 21.809C159.034 25.1 160.378 29.097 160.378 33.404C160.378 37.623 159.058 41.654 156.735 45.001C154.965 47.555 152.611 49.709 149.815 51.245L154.79 56.828H176.071C177.898 56.828 179.384 55.342 179.384 53.516V13.294C179.384 11.467 177.898 9.982 176.071 9.982H151.5L149.638 3.526C149.606 3.416 149.403 3.263 149.288 3.263H130.788C130.672 3.263 130.47 3.416 130.439 3.526L128.576 9.982H113.047L123.44 21.645C127.258 16.251 133.377 13.064 140.038 13.064Z" fill="black"/>
<path d="M0.84 26.2752C0.84 24.6272 1.208 23.1552 1.944 21.8592C2.696 20.5472 3.712 19.5312 4.992 18.8112C6.288 18.0752 7.736 17.7072 9.336 17.7072C11.208 17.7072 12.848 18.1872 14.256 19.1472C15.664 20.1072 16.648 21.4352 17.208 23.1312H13.344C12.96 22.3312 12.416 21.7312 11.712 21.3312C11.024 20.9312 10.224 20.7312 9.312 20.7312C8.336 20.7312 7.464 20.9632 6.696 21.4272C5.944 21.8752 5.352 22.5152 4.92 23.3472C4.504 24.1792 4.296 25.1552 4.296 26.2752C4.296 27.3792 4.504 28.3552 4.92 29.2032C5.352 30.0352 5.944 30.6832 6.696 31.1472C7.464 31.5952 8.336 31.8192 9.312 31.8192C10.224 31.8192 11.024 31.6192 11.712 31.2192C12.416 30.8032 12.96 30.1952 13.344 29.3952H17.208C16.648 31.1072 15.664 32.4432 14.256 33.4032C12.864 34.3472 11.224 34.8192 9.336 34.8192C7.736 34.8192 6.288 34.4592 4.992 33.7392C3.712 33.0032 2.696 31.9872 1.944 30.6912C1.208 29.3952 0.84 27.9232 0.84 26.2752ZM30.3499 31.4832H23.6779L22.5739 34.6752H19.0459L25.0699 17.8992H28.9819L35.0059 34.6752H31.4539L30.3499 31.4832ZM29.4379 28.7952L27.0139 21.7872L24.5899 28.7952H29.4379ZM49.4736 23.1072C49.4736 24.0032 49.2576 24.8432 48.8256 25.6272C48.4096 26.4112 47.7456 27.0432 46.8336 27.5232C45.9376 28.0032 44.8016 28.2432 43.4256 28.2432H40.6176V34.6752H37.2576V17.9232H43.4256C44.7216 17.9232 45.8256 18.1472 46.7376 18.5952C47.6496 19.0432 48.3296 19.6592 48.7776 20.4432C49.2416 21.2272 49.4736 22.1152 49.4736 23.1072ZM43.2816 25.5312C44.2096 25.5312 44.8976 25.3232 45.3456 24.9072C45.7936 24.4752 46.0176 23.8752 46.0176 23.1072C46.0176 21.4752 45.1056 20.6592 43.2816 20.6592H40.6176V25.5312H43.2816ZM63.2591 17.9232V20.6352H58.7951V34.6752H55.4351V20.6352H50.9711V17.9232H63.2591ZM69.0227 17.9232V28.2912C69.0227 29.4272 69.3187 30.2992 69.9107 30.9072C70.5027 31.4992 71.3347 31.7952 72.4067 31.7952C73.4947 31.7952 74.3347 31.4992 74.9267 30.9072C75.5187 30.2992 75.8147 29.4272 75.8147 28.2912V17.9232H79.1987V28.2672C79.1987 29.6912 78.8867 30.8992 78.2627 31.8912C77.6547 32.8672 76.8307 33.6032 75.7907 34.0992C74.7667 34.5952 73.6227 34.8432 72.3587 34.8432C71.1107 34.8432 69.9747 34.5952 68.9507 34.0992C67.9427 33.6032 67.1427 32.8672 66.5507 31.8912C65.9587 30.8992 65.6627 29.6912 65.6627 28.2672V17.9232H69.0227ZM91.0851 34.6752L87.3891 28.1472H85.8051V34.6752H82.4451V17.9232H88.7331C90.0291 17.9232 91.1331 18.1552 92.0451 18.6192C92.9571 19.0672 93.6371 19.6832 94.0851 20.4672C94.5491 21.2352 94.7811 22.0992 94.7811 23.0592C94.7811 24.1632 94.4611 25.1632 93.8211 26.0592C93.1811 26.9392 92.2291 27.5472 90.9651 27.8832L94.9731 34.6752H91.0851ZM85.8051 25.6272H88.6131C89.5251 25.6272 90.2051 25.4112 90.6531 24.9792C91.1011 24.5312 91.3251 23.9152 91.3251 23.1312C91.3251 22.3632 91.1011 21.7712 90.6531 21.3552C90.2051 20.9232 89.5251 20.7072 88.6131 20.7072H85.8051V25.6272ZM101.18 20.6352V24.8352H106.82V27.4992H101.18V31.9392H107.54V34.6752H97.8201V17.8992H107.54V20.6352H101.18Z" fill="black"/>
<path d="M48.1398 36.7236C49.0932 36.7236 49.9438 36.9216 50.6918 37.3176C51.4545 37.7136 52.0485 38.3003 52.4738 39.0776C52.9138 39.855 53.1338 40.7936 53.1338 41.8936V49.0436H50.6478V42.2676C50.6478 41.1823 50.3765 40.3536 49.8338 39.7816C49.2912 39.195 48.5505 38.9016 47.6118 38.9016C46.6732 38.9016 45.9252 39.195 45.3678 39.7816C44.8252 40.3536 44.5538 41.1823 44.5538 42.2676V49.0436H42.0678V42.2676C42.0678 41.1823 41.7965 40.3536 41.2538 39.7816C40.7112 39.195 39.9705 38.9016 39.0318 38.9016C38.0932 38.9016 37.3452 39.195 36.7878 39.7816C36.2452 40.3536 35.9738 41.1823 35.9738 42.2676V49.0436H33.4658V36.9216H35.9738V38.3076C36.3845 37.809 36.9052 37.4203 37.5358 37.1416C38.1665 36.863 38.8412 36.7236 39.5598 36.7236C40.5278 36.7236 41.3932 36.929 42.1558 37.3396C42.9185 37.7503 43.5052 38.3443 43.9158 39.1216C44.2825 38.3883 44.8545 37.809 45.6318 37.3836C46.4092 36.9436 47.2452 36.7236 48.1398 36.7236ZM60.4832 49.2416C59.3392 49.2416 58.3052 48.985 57.3812 48.4716C56.4572 47.9436 55.7312 47.2103 55.2032 46.2716C54.6752 45.3183 54.4112 44.2183 54.4112 42.9716C54.4112 41.7396 54.6825 40.647 55.2252 39.6936C55.7679 38.7403 56.5085 38.007 57.4472 37.4936C58.3859 36.9803 59.4345 36.7236 60.5932 36.7236C61.7519 36.7236 62.8005 36.9803 63.7392 37.4936C64.6779 38.007 65.4185 38.7403 65.9612 39.6936C66.5039 40.647 66.7752 41.7396 66.7752 42.9716C66.7752 44.2036 66.4965 45.2963 65.9392 46.2496C65.3819 47.203 64.6192 47.9436 63.6512 48.4716C62.6979 48.985 61.6419 49.2416 60.4832 49.2416ZM60.4832 47.0636C61.1285 47.0636 61.7299 46.9096 62.2872 46.6016C62.8592 46.2936 63.3212 45.8316 63.6732 45.2156C64.0252 44.5996 64.2012 43.8516 64.2012 42.9716C64.2012 42.0916 64.0325 41.351 63.6952 40.7496C63.3579 40.1336 62.9105 39.6716 62.3532 39.3636C61.7959 39.0556 61.1945 38.9016 60.5492 38.9016C59.9039 38.9016 59.3025 39.0556 58.7452 39.3636C58.2025 39.6716 57.7699 40.1336 57.4472 40.7496C57.1245 41.351 56.9632 42.0916 56.9632 42.9716C56.9632 44.277 57.2932 45.289 57.9532 46.0076C58.6279 46.7116 59.4712 47.0636 60.4832 47.0636ZM82.8285 36.7236C83.7818 36.7236 84.6325 36.9216 85.3805 37.3176C86.1432 37.7136 86.7372 38.3003 87.1625 39.0776C87.6025 39.855 87.8225 40.7936 87.8225 41.8936V49.0436H85.3365V42.2676C85.3365 41.1823 85.0652 40.3536 84.5225 39.7816C83.9798 39.195 83.2392 38.9016 82.3005 38.9016C81.3618 38.9016 80.6138 39.195 80.0565 39.7816C79.5138 40.3536 79.2425 41.1823 79.2425 42.2676V49.0436H76.7565V42.2676C76.7565 41.1823 76.4852 40.3536 75.9425 39.7816C75.3998 39.195 74.6592 38.9016 73.7205 38.9016C72.7818 38.9016 72.0338 39.195 71.4765 39.7816C70.9338 40.3536 70.6625 41.1823 70.6625 42.2676V49.0436H68.1545V36.9216H70.6625V38.3076C71.0732 37.809 71.5938 37.4203 72.2245 37.1416C72.8552 36.863 73.5298 36.7236 74.2485 36.7236C75.2165 36.7236 76.0818 36.929 76.8445 37.3396C77.6072 37.7503 78.1938 38.3443 78.6045 39.1216C78.9712 38.3883 79.5432 37.809 80.3205 37.3836C81.0978 36.9436 81.9338 36.7236 82.8285 36.7236ZM101.024 42.6856C101.024 43.1403 100.995 43.551 100.936 43.9176H91.6739C91.7472 44.8856 92.1066 45.663 92.7519 46.2496C93.3972 46.8363 94.1892 47.1296 95.1279 47.1296C96.4772 47.1296 97.4306 46.565 97.9879 45.4356H100.694C100.327 46.5503 99.6599 47.467 98.6919 48.1856C97.7386 48.8896 96.5506 49.2416 95.1279 49.2416C93.9692 49.2416 92.9279 48.985 92.0039 48.4716C91.0946 47.9436 90.3759 47.2103 89.8479 46.2716C89.3346 45.3183 89.0779 44.2183 89.0779 42.9716C89.0779 41.725 89.3272 40.6323 89.8259 39.6936C90.3392 38.7403 91.0506 38.007 91.9599 37.4936C92.8839 36.9803 93.9399 36.7236 95.1279 36.7236C96.2719 36.7236 97.2912 36.973 98.1859 37.4716C99.0806 37.9703 99.7772 38.6743 100.276 39.5836C100.775 40.4783 101.024 41.5123 101.024 42.6856ZM98.4059 41.8936C98.3912 40.9696 98.0612 40.229 97.4159 39.6716C96.7706 39.1143 95.9712 38.8356 95.0179 38.8356C94.1526 38.8356 93.4119 39.1143 92.7959 39.6716C92.1799 40.2143 91.8132 40.955 91.6959 41.8936H98.4059ZM108.508 36.7236C109.461 36.7236 110.312 36.9216 111.06 37.3176C111.823 37.7136 112.417 38.3003 112.842 39.0776C113.267 39.855 113.48 40.7936 113.48 41.8936V49.0436H110.994V42.2676C110.994 41.1823 110.723 40.3536 110.18 39.7816C109.637 39.195 108.897 38.9016 107.958 38.9016C107.019 38.9016 106.271 39.195 105.714 39.7816C105.171 40.3536 104.9 41.1823 104.9 42.2676V49.0436H102.392V36.9216H104.9V38.3076C105.311 37.809 105.831 37.4203 106.462 37.1416C107.107 36.863 107.789 36.7236 108.508 36.7236ZM118.505 38.9676V45.6776C118.505 46.1323 118.608 46.4623 118.813 46.6676C119.033 46.8583 119.4 46.9536 119.913 46.9536H121.453V49.0436H119.473C118.344 49.0436 117.478 48.7796 116.877 48.2516C116.276 47.7236 115.975 46.8656 115.975 45.6776V38.9676H114.545V36.9216H115.975V33.9076H118.505V36.9216H121.453V38.9676H118.505ZM127.065 49.2416C126.111 49.2416 125.253 49.073 124.491 48.7356C123.743 48.3836 123.149 47.9143 122.709 47.3276C122.269 46.7263 122.034 46.059 122.005 45.3256H124.601C124.645 45.839 124.887 46.2716 125.327 46.6236C125.781 46.961 126.346 47.1296 127.021 47.1296C127.725 47.1296 128.267 46.9976 128.649 46.7336C129.045 46.455 129.243 46.103 129.243 45.6776C129.243 45.223 129.023 44.8856 128.583 44.6656C128.157 44.4456 127.475 44.2036 126.537 43.9396C125.627 43.6903 124.887 43.4483 124.315 43.2136C123.743 42.979 123.244 42.6196 122.819 42.1356C122.408 41.6516 122.203 41.0136 122.203 40.2216C122.203 39.5763 122.393 38.9896 122.775 38.4616C123.156 37.919 123.699 37.4936 124.403 37.1856C125.121 36.8776 125.943 36.7236 126.867 36.7236C128.245 36.7236 129.353 37.0756 130.189 37.7796C131.039 38.469 131.494 39.415 131.553 40.6176H129.045C129.001 40.075 128.781 39.6423 128.385 39.3196C127.989 38.997 127.453 38.8356 126.779 38.8356C126.119 38.8356 125.613 38.9603 125.261 39.2096C124.909 39.459 124.733 39.789 124.733 40.1996C124.733 40.5223 124.85 40.7936 125.085 41.0136C125.319 41.2336 125.605 41.4096 125.943 41.5416C126.28 41.659 126.779 41.813 127.439 42.0036C128.319 42.2383 129.037 42.4803 129.595 42.7296C130.167 42.9643 130.658 43.3163 131.069 43.7856C131.479 44.255 131.692 44.8783 131.707 45.6556C131.707 46.345 131.516 46.961 131.135 47.5036C130.753 48.0463 130.211 48.4716 129.507 48.7796C128.817 49.0876 128.003 49.2416 127.065 49.2416Z" fill="black"/>
<path fill-rule="evenodd" clip-rule="evenodd" d="M156.735 45.0013H179.383V21.8083H156.742C159.034 25.1003 160.378 29.0973 160.378 33.4043C160.378 37.6233 159.058 41.6543 156.735 45.0013Z" fill="#49734A"/>
<path fill-rule="evenodd" clip-rule="evenodd" d="M161.714 5.09301C161.714 5.59801 162.211 6.01101 162.818 6.01101H172.068C172.675 6.01101 173.172 5.59801 173.172 5.09301V3.37401C173.172 2.87001 172.675 2.45801 172.068 2.45801H162.818C162.21 2.45801 161.713 2.87001 161.713 3.37401L161.714 5.09301Z" fill="black"/>
<path fill-rule="evenodd" clip-rule="evenodd" d="M167.143 17.1602C167.143 17.4642 167.391 17.7132 167.696 17.7132H175.426C175.73 17.7132 175.978 17.4652 175.978 17.1602V13.8472C175.978 13.5432 175.73 13.2952 175.426 13.2952H167.695C167.391 13.2952 167.142 13.5432 167.142 13.8472V17.1602H167.143Z" fill="black"/>
<path fill-rule="evenodd" clip-rule="evenodd" d="M104.154 0L111.08 7.773H126.914L128.315 2.914C128.621 1.854 129.684 1.054 130.787 1.054H149.288C150.391 1.054 151.453 1.854 151.759 2.913L153.161 7.773H176.071C179.116 7.773 181.594 10.249 181.594 13.294V53.516C181.594 56.561 179.116 59.038 176.071 59.038H156.759L164.556 67.787L162.402 69.707L102 1.919L104.154 0ZM144.721 44.419C144.823 44.367 144.928 44.318 145.028 44.263C150.908 41.101 153.111 33.772 149.95 27.892C147.46 23.263 142.39 20.916 137.475 21.667C141.838 21.813 146.008 24.205 148.225 28.325C151.222 33.9 149.617 40.716 144.721 44.419ZM127.088 25.738C129.709 21.319 134.528 18.356 140.038 18.357C148.349 18.357 155.087 25.095 155.087 33.405C155.087 39.533 151.423 44.805 146.168 47.153L148.302 49.548C154.32 46.459 158.168 40.205 158.168 33.405C158.168 23.408 150.035 15.274 140.038 15.274C133.929 15.274 128.331 18.28 124.953 23.344L127.088 25.738ZM140.038 13.064C146.948 13.064 153.063 16.528 156.742 21.809C159.034 25.1 160.378 29.097 160.378 33.404C160.378 37.623 159.058 41.654 156.735 45.001C154.965 47.555 152.611 49.709 149.815 51.245L154.79 56.828H176.071C177.898 56.828 179.384 55.342 179.384 53.516V13.294C179.384 11.467 177.898 9.982 176.071 9.982H151.5L149.638 3.526C149.606 3.416 149.403 3.263 149.288 3.263H130.788C130.672 3.263 130.47 3.416 130.439 3.526L128.576 9.982H113.047L123.44 21.645C127.258 16.251 133.377 13.064 140.038 13.064Z" fill="black"/>
<path d="M0.84 26.2752C0.84 24.6272 1.208 23.1552 1.944 21.8592C2.696 20.5472 3.712 19.5312 4.992 18.8112C6.288 18.0752 7.736 17.7072 9.336 17.7072C11.208 17.7072 12.848 18.1872 14.256 19.1472C15.664 20.1072 16.648 21.4352 17.208 23.1312H13.344C12.96 22.3312 12.416 21.7312 11.712 21.3312C11.024 20.9312 10.224 20.7312 9.312 20.7312C8.336 20.7312 7.464 20.9632 6.696 21.4272C5.944 21.8752 5.352 22.5152 4.92 23.3472C4.504 24.1792 4.296 25.1552 4.296 26.2752C4.296 27.3792 4.504 28.3552 4.92 29.2032C5.352 30.0352 5.944 30.6832 6.696 31.1472C7.464 31.5952 8.336 31.8192 9.312 31.8192C10.224 31.8192 11.024 31.6192 11.712 31.2192C12.416 30.8032 12.96 30.1952 13.344 29.3952H17.208C16.648 31.1072 15.664 32.4432 14.256 33.4032C12.864 34.3472 11.224 34.8192 9.336 34.8192C7.736 34.8192 6.288 34.4592 4.992 33.7392C3.712 33.0032 2.696 31.9872 1.944 30.6912C1.208 29.3952 0.84 27.9232 0.84 26.2752ZM30.3499 31.4832H23.6779L22.5739 34.6752H19.0459L25.0699 17.8992H28.9819L35.0059 34.6752H31.4539L30.3499 31.4832ZM29.4379 28.7952L27.0139 21.7872L24.5899 28.7952H29.4379ZM49.4736 23.1072C49.4736 24.0032 49.2576 24.8432 48.8256 25.6272C48.4096 26.4112 47.7456 27.0432 46.8336 27.5232C45.9376 28.0032 44.8016 28.2432 43.4256 28.2432H40.6176V34.6752H37.2576V17.9232H43.4256C44.7216 17.9232 45.8256 18.1472 46.7376 18.5952C47.6496 19.0432 48.3296 19.6592 48.7776 20.4432C49.2416 21.2272 49.4736 22.1152 49.4736 23.1072ZM43.2816 25.5312C44.2096 25.5312 44.8976 25.3232 45.3456 24.9072C45.7936 24.4752 46.0176 23.8752 46.0176 23.1072C46.0176 21.4752 45.1056 20.6592 43.2816 20.6592H40.6176V25.5312H43.2816ZM63.2591 17.9232V20.6352H58.7951V34.6752H55.4351V20.6352H50.9711V17.9232H63.2591ZM69.0227 17.9232V28.2912C69.0227 29.4272 69.3187 30.2992 69.9107 30.9072C70.5027 31.4992 71.3347 31.7952 72.4067 31.7952C73.4947 31.7952 74.3347 31.4992 74.9267 30.9072C75.5187 30.2992 75.8147 29.4272 75.8147 28.2912V17.9232H79.1987V28.2672C79.1987 29.6912 78.8867 30.8992 78.2627 31.8912C77.6547 32.8672 76.8307 33.6032 75.7907 34.0992C74.7667 34.5952 73.6227 34.8432 72.3587 34.8432C71.1107 34.8432 69.9747 34.5952 68.9507 34.0992C67.9427 33.6032 67.1427 32.8672 66.5507 31.8912C65.9587 30.8992 65.6627 29.6912 65.6627 28.2672V17.9232H69.0227ZM91.0851 34.6752L87.3891 28.1472H85.8051V34.6752H82.4451V17.9232H88.7331C90.0291 17.9232 91.1331 18.1552 92.0451 18.6192C92.9571 19.0672 93.6371 19.6832 94.0851 20.4672C94.5491 21.2352 94.7811 22.0992 94.7811 23.0592C94.7811 24.1632 94.4611 25.1632 93.8211 26.0592C93.1811 26.9392 92.2291 27.5472 90.9651 27.8832L94.9731 34.6752H91.0851ZM85.8051 25.6272H88.6131C89.5251 25.6272 90.2051 25.4112 90.6531 24.9792C91.1011 24.5312 91.3251 23.9152 91.3251 23.1312C91.3251 22.3632 91.1011 21.7712 90.6531 21.3552C90.2051 20.9232 89.5251 20.7072 88.6131 20.7072H85.8051V25.6272ZM101.18 20.6352V24.8352H106.82V27.4992H101.18V31.9392H107.54V34.6752H97.8201V17.8992H107.54V20.6352H101.18Z" fill="black"/>
<path d="M48.1398 36.7236C49.0932 36.7236 49.9438 36.9216 50.6918 37.3176C51.4545 37.7136 52.0485 38.3003 52.4738 39.0776C52.9138 39.855 53.1338 40.7936 53.1338 41.8936V49.0436H50.6478V42.2676C50.6478 41.1823 50.3765 40.3536 49.8338 39.7816C49.2912 39.195 48.5505 38.9016 47.6118 38.9016C46.6732 38.9016 45.9252 39.195 45.3678 39.7816C44.8252 40.3536 44.5538 41.1823 44.5538 42.2676V49.0436H42.0678V42.2676C42.0678 41.1823 41.7965 40.3536 41.2538 39.7816C40.7112 39.195 39.9705 38.9016 39.0318 38.9016C38.0932 38.9016 37.3452 39.195 36.7878 39.7816C36.2452 40.3536 35.9738 41.1823 35.9738 42.2676V49.0436H33.4658V36.9216H35.9738V38.3076C36.3845 37.809 36.9052 37.4203 37.5358 37.1416C38.1665 36.863 38.8412 36.7236 39.5598 36.7236C40.5278 36.7236 41.3932 36.929 42.1558 37.3396C42.9185 37.7503 43.5052 38.3443 43.9158 39.1216C44.2825 38.3883 44.8545 37.809 45.6318 37.3836C46.4092 36.9436 47.2452 36.7236 48.1398 36.7236ZM60.4832 49.2416C59.3392 49.2416 58.3052 48.985 57.3812 48.4716C56.4572 47.9436 55.7312 47.2103 55.2032 46.2716C54.6752 45.3183 54.4112 44.2183 54.4112 42.9716C54.4112 41.7396 54.6825 40.647 55.2252 39.6936C55.7679 38.7403 56.5085 38.007 57.4472 37.4936C58.3859 36.9803 59.4345 36.7236 60.5932 36.7236C61.7519 36.7236 62.8005 36.9803 63.7392 37.4936C64.6779 38.007 65.4185 38.7403 65.9612 39.6936C66.5039 40.647 66.7752 41.7396 66.7752 42.9716C66.7752 44.2036 66.4965 45.2963 65.9392 46.2496C65.3819 47.203 64.6192 47.9436 63.6512 48.4716C62.6979 48.985 61.6419 49.2416 60.4832 49.2416ZM60.4832 47.0636C61.1285 47.0636 61.7299 46.9096 62.2872 46.6016C62.8592 46.2936 63.3212 45.8316 63.6732 45.2156C64.0252 44.5996 64.2012 43.8516 64.2012 42.9716C64.2012 42.0916 64.0325 41.351 63.6952 40.7496C63.3579 40.1336 62.9105 39.6716 62.3532 39.3636C61.7959 39.0556 61.1945 38.9016 60.5492 38.9016C59.9039 38.9016 59.3025 39.0556 58.7452 39.3636C58.2025 39.6716 57.7699 40.1336 57.4472 40.7496C57.1245 41.351 56.9632 42.0916 56.9632 42.9716C56.9632 44.277 57.2932 45.289 57.9532 46.0076C58.6279 46.7116 59.4712 47.0636 60.4832 47.0636ZM82.8285 36.7236C83.7818 36.7236 84.6325 36.9216 85.3805 37.3176C86.1432 37.7136 86.7372 38.3003 87.1625 39.0776C87.6025 39.855 87.8225 40.7936 87.8225 41.8936V49.0436H85.3365V42.2676C85.3365 41.1823 85.0652 40.3536 84.5225 39.7816C83.9798 39.195 83.2392 38.9016 82.3005 38.9016C81.3618 38.9016 80.6138 39.195 80.0565 39.7816C79.5138 40.3536 79.2425 41.1823 79.2425 42.2676V49.0436H76.7565V42.2676C76.7565 41.1823 76.4852 40.3536 75.9425 39.7816C75.3998 39.195 74.6592 38.9016 73.7205 38.9016C72.7818 38.9016 72.0338 39.195 71.4765 39.7816C70.9338 40.3536 70.6625 41.1823 70.6625 42.2676V49.0436H68.1545V36.9216H70.6625V38.3076C71.0732 37.809 71.5938 37.4203 72.2245 37.1416C72.8552 36.863 73.5298 36.7236 74.2485 36.7236C75.2165 36.7236 76.0818 36.929 76.8445 37.3396C77.6072 37.7503 78.1938 38.3443 78.6045 39.1216C78.9712 38.3883 79.5432 37.809 80.3205 37.3836C81.0978 36.9436 81.9338 36.7236 82.8285 36.7236ZM101.024 42.6856C101.024 43.1403 100.995 43.551 100.936 43.9176H91.6739C91.7472 44.8856 92.1066 45.663 92.7519 46.2496C93.3972 46.8363 94.1892 47.1296 95.1279 47.1296C96.4772 47.1296 97.4306 46.565 97.9879 45.4356H100.694C100.327 46.5503 99.6599 47.467 98.6919 48.1856C97.7386 48.8896 96.5506 49.2416 95.1279 49.2416C93.9692 49.2416 92.9279 48.985 92.0039 48.4716C91.0946 47.9436 90.3759 47.2103 89.8479 46.2716C89.3346 45.3183 89.0779 44.2183 89.0779 42.9716C89.0779 41.725 89.3272 40.6323 89.8259 39.6936C90.3392 38.7403 91.0506 38.007 91.9599 37.4936C92.8839 36.9803 93.9399 36.7236 95.1279 36.7236C96.2719 36.7236 97.2912 36.973 98.1859 37.4716C99.0806 37.9703 99.7772 38.6743 100.276 39.5836C100.775 40.4783 101.024 41.5123 101.024 42.6856ZM98.4059 41.8936C98.3912 40.9696 98.0612 40.229 97.4159 39.6716C96.7706 39.1143 95.9712 38.8356 95.0179 38.8356C94.1526 38.8356 93.4119 39.1143 92.7959 39.6716C92.1799 40.2143 91.8132 40.955 91.6959 41.8936H98.4059ZM108.508 36.7236C109.461 36.7236 110.312 36.9216 111.06 37.3176C111.823 37.7136 112.417 38.3003 112.842 39.0776C113.267 39.855 113.48 40.7936 113.48 41.8936V49.0436H110.994V42.2676C110.994 41.1823 110.723 40.3536 110.18 39.7816C109.637 39.195 108.897 38.9016 107.958 38.9016C107.019 38.9016 106.271 39.195 105.714 39.7816C105.171 40.3536 104.9 41.1823 104.9 42.2676V49.0436H102.392V36.9216H104.9V38.3076C105.311 37.809 105.831 37.4203 106.462 37.1416C107.107 36.863 107.789 36.7236 108.508 36.7236ZM118.505 38.9676V45.6776C118.505 46.1323 118.608 46.4623 118.813 46.6676C119.033 46.8583 119.4 46.9536 119.913 46.9536H121.453V49.0436H119.473C118.344 49.0436 117.478 48.7796 116.877 48.2516C116.276 47.7236 115.975 46.8656 115.975 45.6776V38.9676H114.545V36.9216H115.975V33.9076H118.505V36.9216H121.453V38.9676H118.505ZM127.065 49.2416C126.111 49.2416 125.253 49.073 124.491 48.7356C123.743 48.3836 123.149 47.9143 122.709 47.3276C122.269 46.7263 122.034 46.059 122.005 45.3256H124.601C124.645 45.839 124.887 46.2716 125.327 46.6236C125.781 46.961 126.346 47.1296 127.021 47.1296C127.725 47.1296 128.267 46.9976 128.649 46.7336C129.045 46.455 129.243 46.103 129.243 45.6776C129.243 45.223 129.023 44.8856 128.583 44.6656C128.157 44.4456 127.475 44.2036 126.537 43.9396C125.627 43.6903 124.887 43.4483 124.315 43.2136C123.743 42.979 123.244 42.6196 122.819 42.1356C122.408 41.6516 122.203 41.0136 122.203 40.2216C122.203 39.5763 122.393 38.9896 122.775 38.4616C123.156 37.919 123.699 37.4936 124.403 37.1856C125.121 36.8776 125.943 36.7236 126.867 36.7236C128.245 36.7236 129.353 37.0756 130.189 37.7796C131.039 38.469 131.494 39.415 131.553 40.6176H129.045C129.001 40.075 128.781 39.6423 128.385 39.3196C127.989 38.997 127.453 38.8356 126.779 38.8356C126.119 38.8356 125.613 38.9603 125.261 39.2096C124.909 39.459 124.733 39.789 124.733 40.1996C124.733 40.5223 124.85 40.7936 125.085 41.0136C125.319 41.2336 125.605 41.4096 125.943 41.5416C126.28 41.659 126.779 41.813 127.439 42.0036C128.319 42.2383 129.037 42.4803 129.595 42.7296C130.167 42.9643 130.658 43.3163 131.069 43.7856C131.479 44.255 131.692 44.8783 131.707 45.6556C131.707 46.345 131.516 46.961 131.135 47.5036C130.753 48.0463 130.211 48.4716 129.507 48.7796C128.817 49.0876 128.003 49.2416 127.065 49.2416Z" fill="black"/>
</svg>
