<svg width="163" height="50" viewBox="0 0 163 50" fill="none" xmlns="http://www.w3.org/2000/svg">
<path fill-rule="evenodd" clip-rule="evenodd" d="M17.8308 32.279H1.58571V15.6429H17.8258C16.1818 18.0043 15.2178 20.8713 15.2178 23.9606C15.2178 26.9869 16.1646 29.8782 17.8308 32.279Z" fill="#49734A"/>
<path fill-rule="evenodd" clip-rule="evenodd" d="M14.26 3.65324C14.26 4.01547 13.9035 4.31171 13.4681 4.31171H6.83317C6.39778 4.31171 6.04129 4.01547 6.04129 3.65324V2.42022C6.04129 2.05871 6.39778 1.76318 6.83317 1.76318H13.4681C13.9042 1.76318 14.2607 2.05871 14.2607 2.42022L14.26 3.65324Z" fill="black"/>
<path fill-rule="evenodd" clip-rule="evenodd" d="M10.3652 12.3088C10.3652 12.5269 10.1873 12.7055 9.96851 12.7055H4.42387C4.20582 12.7055 4.02793 12.5276 4.02793 12.3088V9.93244C4.02793 9.71439 4.20582 9.5365 4.42387 9.5365H9.96923C10.1873 9.5365 10.3659 9.71439 10.3659 9.93244V12.3088H10.3652Z" fill="black"/>
<path fill-rule="evenodd" clip-rule="evenodd" d="M55.5467 0L50.5788 5.57548H39.2212L38.2163 2.09018C37.9968 1.32985 37.2343 0.756022 36.4432 0.756022H23.1726C22.3814 0.756022 21.6197 1.32985 21.4002 2.08946L20.3946 5.57548H3.96148C1.77734 5.57548 -0.000100136 7.35149 -0.000100136 9.53563V38.3864C-0.000100136 40.5705 1.77734 42.3473 3.96148 42.3473H17.8137L12.2211 48.6228L13.7661 50L57.0917 1.37648L55.5467 0ZM26.4485 31.8612C26.3753 31.8239 26.3 31.7888 26.2283 31.7493C22.0106 29.4813 20.4304 24.2243 22.6978 20.0066C24.4838 16.6863 28.1205 15.0028 31.6459 15.5415C28.5164 15.6462 25.5253 17.362 23.9351 20.3172C21.7854 24.3161 22.9366 29.2051 26.4485 31.8612ZM39.0964 18.4616C37.2164 15.2919 33.7598 13.1665 29.8075 13.1673C23.8461 13.1673 19.0131 18.0003 19.0131 23.961C19.0131 28.3565 21.6412 32.1381 25.4105 33.8223L23.8799 35.5402C19.5632 33.3245 16.8031 28.8386 16.8031 23.961C16.8031 16.7903 22.6368 10.9559 29.8075 10.9559C34.1894 10.9559 38.2048 13.112 40.6278 16.7444L39.0964 18.4616ZM29.8075 9.37065C24.8511 9.37065 20.4648 11.8553 17.8259 15.6433C16.1819 18.0039 15.2179 20.8709 15.2179 23.9603C15.2179 26.9865 16.1647 29.8779 17.831 32.2787C19.1006 34.1106 20.7891 35.6557 22.7946 36.7574L19.2261 40.762H3.96148C2.651 40.762 1.58511 39.6962 1.58511 38.3864V9.53563C1.58511 8.22514 2.651 7.15997 3.96148 7.15997H21.586L22.9216 2.52916C22.9445 2.45026 23.0901 2.34051 23.1726 2.34051H36.4424C36.5256 2.34051 36.6705 2.45026 36.6928 2.52916L38.0291 7.15997H49.1678L41.7131 15.5257C38.9745 11.6566 34.5854 9.37065 29.8075 9.37065Z" fill="black"/>
<path d="M52.1076 18.52C52.1076 17.74 52.2396 16.978 52.5036 16.234C52.7796 15.478 53.1756 14.794 53.6916 14.182C54.2076 13.558 54.8436 13.066 55.5996 12.706C56.3556 12.334 57.2136 12.148 58.1736 12.148C59.3136 12.148 60.2856 12.412 61.0896 12.94C61.9056 13.456 62.5056 14.122 62.8896 14.938L61.8996 15.55C61.6236 14.986 61.2756 14.542 60.8556 14.218C60.4356 13.882 59.9856 13.642 59.5056 13.498C59.0376 13.354 58.5696 13.282 58.1016 13.282C57.3336 13.282 56.6556 13.438 56.0676 13.75C55.4796 14.05 54.9816 14.458 54.5736 14.974C54.1776 15.478 53.8776 16.048 53.6736 16.684C53.4696 17.308 53.3676 17.944 53.3676 18.592C53.3676 19.3 53.4876 19.978 53.7276 20.626C53.9676 21.274 54.3036 21.85 54.7356 22.354C55.1676 22.846 55.6716 23.242 56.2476 23.542C56.8356 23.83 57.4716 23.974 58.1556 23.974C58.6356 23.974 59.1276 23.89 59.6316 23.722C60.1356 23.554 60.6036 23.296 61.0356 22.948C61.4796 22.6 61.8336 22.15 62.0976 21.598L63.1416 22.138C62.8776 22.774 62.4696 23.314 61.9176 23.758C61.3656 24.202 60.7476 24.538 60.0636 24.766C59.3916 24.994 58.7316 25.108 58.0836 25.108C57.2076 25.108 56.4036 24.922 55.6716 24.55C54.9396 24.166 54.3036 23.662 53.7636 23.038C53.2356 22.402 52.8276 21.694 52.5396 20.914C52.2516 20.122 52.1076 19.324 52.1076 18.52ZM69.0776 12.22H70.1396L75.4496 25H74.1176L72.4616 21.004H66.7196L65.0816 25H63.7316L69.0776 12.22ZM72.1736 20.014L69.5996 13.696L66.9896 20.014H72.1736ZM77.2817 25V12.22H82.5737C83.1257 12.22 83.6297 12.334 84.0857 12.562C84.5537 12.79 84.9557 13.102 85.2917 13.498C85.6277 13.882 85.8917 14.314 86.0837 14.794C86.2757 15.262 86.3717 15.742 86.3717 16.234C86.3717 16.93 86.2157 17.59 85.9037 18.214C85.6037 18.826 85.1777 19.324 84.6257 19.708C84.0737 20.092 83.4257 20.284 82.6817 20.284H78.5417V25H77.2817ZM78.5417 19.168H82.6277C83.1317 19.168 83.5697 19.03 83.9417 18.754C84.3137 18.478 84.6017 18.118 84.8057 17.674C85.0097 17.23 85.1117 16.75 85.1117 16.234C85.1117 15.706 84.9917 15.22 84.7517 14.776C84.5117 14.332 84.1937 13.984 83.7977 13.732C83.4137 13.468 82.9877 13.336 82.5197 13.336H78.5417V19.168ZM97.551 13.336H92.997V25H91.737V13.336H87.183V12.22H97.551V13.336ZM104.667 25.09C103.659 25.09 102.807 24.91 102.111 24.55C101.415 24.19 100.863 23.71 100.455 23.11C100.047 22.498 99.7473 21.808 99.5553 21.04C99.3753 20.272 99.2853 19.48 99.2853 18.664V12.22H100.527V18.664C100.527 19.324 100.593 19.972 100.725 20.608C100.869 21.244 101.097 21.814 101.409 22.318C101.721 22.822 102.141 23.224 102.669 23.524C103.197 23.812 103.857 23.956 104.649 23.956C105.465 23.956 106.137 23.806 106.665 23.506C107.205 23.194 107.625 22.786 107.925 22.282C108.237 21.778 108.459 21.214 108.591 20.59C108.723 19.954 108.789 19.312 108.789 18.664V12.22H110.049V18.664C110.049 19.516 109.953 20.332 109.761 21.112C109.569 21.892 109.257 22.576 108.825 23.164C108.405 23.752 107.853 24.22 107.169 24.568C106.485 24.916 105.651 25.09 104.667 25.09ZM113.053 25V12.22H118.453C119.005 12.22 119.509 12.334 119.965 12.562C120.421 12.79 120.817 13.102 121.153 13.498C121.501 13.882 121.765 14.314 121.945 14.794C122.137 15.262 122.233 15.742 122.233 16.234C122.233 16.846 122.113 17.422 121.873 17.962C121.645 18.502 121.315 18.958 120.883 19.33C120.463 19.702 119.965 19.948 119.389 20.068L122.521 25H121.099L118.093 20.284H114.313V25H113.053ZM114.313 19.168H118.489C118.993 19.168 119.431 19.03 119.803 18.754C120.175 18.478 120.463 18.118 120.667 17.674C120.871 17.218 120.973 16.738 120.973 16.234C120.973 15.718 120.853 15.244 120.613 14.812C120.385 14.368 120.073 14.014 119.677 13.75C119.293 13.474 118.861 13.336 118.381 13.336H114.313V19.168ZM133.399 23.884V25H124.813V12.22H133.237V13.336H126.073V17.944H132.319V19.006H126.073V23.884H133.399Z" fill="black"/>
<path d="M48.0298 37.3481H46.9418V32.6921C46.9418 31.7215 46.7872 31.0068 46.4778 30.5481C46.1685 30.0895 45.7098 29.8601 45.1018 29.8601C44.4725 29.8601 43.9072 30.0841 43.4058 30.5321C42.9152 30.9801 42.5685 31.5561 42.3658 32.2601V37.3481H41.2778V32.6921C41.2778 31.7108 41.1285 30.9961 40.8298 30.5481C40.5312 30.0895 40.0725 29.8601 39.4538 29.8601C38.8352 29.8601 38.2752 30.0788 37.7738 30.5161C37.2725 30.9535 36.9205 31.5295 36.7178 32.2441V37.3481H35.6298V29.0121H36.6218V30.9001C36.9738 30.2495 37.4218 29.7481 37.9658 29.3961C38.5205 29.0441 39.1338 28.8681 39.8058 28.8681C40.4992 28.8681 41.0592 29.0655 41.4858 29.4601C41.9125 29.8548 42.1738 30.3721 42.2698 31.0121C42.6538 30.3081 43.1125 29.7748 43.6458 29.4121C44.1898 29.0495 44.8032 28.8681 45.4858 28.8681C45.9552 28.8681 46.3498 28.9535 46.6698 29.1241C47.0005 29.2948 47.2618 29.5401 47.4538 29.8601C47.6565 30.1695 47.8005 30.5481 47.8858 30.9961C47.9818 31.4335 48.0298 31.9241 48.0298 32.4681V37.3481ZM58.6849 37.5081C58.0876 37.5081 57.5329 37.3961 57.0209 37.1721C56.5196 36.9375 56.0823 36.6228 55.7089 36.2281C55.3463 35.8228 55.0636 35.3641 54.8609 34.8521C54.6583 34.3295 54.5569 33.7801 54.5569 33.2041C54.5569 32.6068 54.6583 32.0521 54.8609 31.5401C55.0636 31.0175 55.3516 30.5588 55.7249 30.1641C56.0983 29.7588 56.5356 29.4441 57.0369 29.2201C57.5489 28.9855 58.1036 28.8681 58.7009 28.8681C59.2983 28.8681 59.8476 28.9855 60.3489 29.2201C60.8503 29.4441 61.2876 29.7588 61.6609 30.1641C62.0343 30.5588 62.3223 31.0175 62.5249 31.5401C62.7276 32.0521 62.8289 32.6068 62.8289 33.2041C62.8289 33.7801 62.7276 34.3295 62.5249 34.8521C62.3223 35.3641 62.0343 35.8228 61.6609 36.2281C61.2983 36.6228 60.8609 36.9375 60.3489 37.1721C59.8476 37.3961 59.2929 37.5081 58.6849 37.5081ZM55.6609 33.2201C55.6609 33.8388 55.7943 34.4041 56.0609 34.9161C56.3383 35.4175 56.7063 35.8175 57.1649 36.1161C57.6236 36.4041 58.1303 36.5481 58.6849 36.5481C59.2396 36.5481 59.7463 36.3988 60.2049 36.1001C60.6636 35.8015 61.0316 35.3961 61.3089 34.8841C61.5863 34.3615 61.7249 33.7961 61.7249 33.1881C61.7249 32.5695 61.5863 32.0041 61.3089 31.4921C61.0316 30.9801 60.6636 30.5748 60.2049 30.2761C59.7463 29.9775 59.2396 29.8281 58.6849 29.8281C58.1303 29.8281 57.6236 29.9828 57.1649 30.2921C56.7169 30.6015 56.3543 31.0121 56.0769 31.5241C55.7996 32.0255 55.6609 32.5908 55.6609 33.2201ZM81.8486 37.3481H80.7606V32.6921C80.7606 31.7215 80.6059 31.0068 80.2966 30.5481C79.9872 30.0895 79.5286 29.8601 78.9206 29.8601C78.2912 29.8601 77.7259 30.0841 77.2246 30.5321C76.7339 30.9801 76.3872 31.5561 76.1846 32.2601V37.3481H75.0966V32.6921C75.0966 31.7108 74.9472 30.9961 74.6486 30.5481C74.3499 30.0895 73.8912 29.8601 73.2726 29.8601C72.6539 29.8601 72.0939 30.0788 71.5926 30.5161C71.0912 30.9535 70.7392 31.5295 70.5366 32.2441V37.3481H69.4486V29.0121H70.4406V30.9001C70.7926 30.2495 71.2406 29.7481 71.7846 29.3961C72.3392 29.0441 72.9526 28.8681 73.6246 28.8681C74.3179 28.8681 74.8779 29.0655 75.3046 29.4601C75.7312 29.8548 75.9926 30.3721 76.0886 31.0121C76.4726 30.3081 76.9312 29.7748 77.4646 29.4121C78.0086 29.0495 78.6219 28.8681 79.3046 28.8681C79.7739 28.8681 80.1686 28.9535 80.4886 29.1241C80.8192 29.2948 81.0806 29.5401 81.2726 29.8601C81.4752 30.1695 81.6192 30.5481 81.7046 30.9961C81.8006 31.4335 81.8486 31.9241 81.8486 32.4681V37.3481ZM92.5517 37.5081C91.9544 37.5081 91.3997 37.3961 90.8877 37.1721C90.3757 36.9375 89.933 36.6228 89.5597 36.2281C89.1864 35.8228 88.893 35.3588 88.6797 34.8361C88.477 34.3135 88.3757 33.7535 88.3757 33.1561C88.3757 32.3775 88.5517 31.6628 88.9037 31.0121C89.2664 30.3615 89.7624 29.8441 90.3917 29.4601C91.021 29.0655 91.7357 28.8681 92.5357 28.8681C93.357 28.8681 94.0717 29.0655 94.6797 29.4601C95.2984 29.8548 95.7837 30.3775 96.1357 31.0281C96.4877 31.6681 96.6637 32.3721 96.6637 33.1401C96.6637 33.2255 96.6637 33.3108 96.6637 33.3961C96.6637 33.4708 96.6584 33.5295 96.6477 33.5721H89.5117C89.565 34.1695 89.7304 34.7028 90.0077 35.1721C90.2957 35.6308 90.6637 35.9988 91.1117 36.2761C91.5704 36.5428 92.0664 36.6761 92.5997 36.6761C93.1437 36.6761 93.6557 36.5375 94.1357 36.2601C94.6264 35.9828 94.9677 35.6201 95.1597 35.1721L96.1037 35.4281C95.933 35.8228 95.6717 36.1801 95.3197 36.5001C94.9677 36.8201 94.5517 37.0708 94.0717 37.2521C93.6024 37.4228 93.0957 37.5081 92.5517 37.5081ZM89.4797 32.7881H95.6397C95.597 32.1801 95.4317 31.6468 95.1437 31.1881C94.8664 30.7295 94.4984 30.3721 94.0397 30.1161C93.5917 29.8495 93.0957 29.7161 92.5517 29.7161C92.0077 29.7161 91.5117 29.8495 91.0637 30.1161C90.6157 30.3721 90.2477 30.7348 89.9597 31.2041C89.6824 31.6628 89.5224 32.1908 89.4797 32.7881ZM110.15 37.3481H109.062V32.6921C109.062 31.7108 108.918 30.9961 108.63 30.5481C108.342 30.0895 107.889 29.8601 107.27 29.8601C106.844 29.8601 106.422 29.9668 106.006 30.1801C105.59 30.3828 105.222 30.6655 104.902 31.0281C104.593 31.3801 104.369 31.7855 104.23 32.2441V37.3481H103.142V29.0121H104.134V30.9001C104.358 30.4948 104.652 30.1428 105.014 29.8441C105.377 29.5348 105.788 29.2948 106.246 29.1241C106.705 28.9535 107.18 28.8681 107.67 28.8681C108.129 28.8681 108.518 28.9535 108.838 29.1241C109.158 29.2948 109.414 29.5401 109.606 29.8601C109.798 30.1695 109.937 30.5481 110.022 30.9961C110.108 31.4335 110.15 31.9241 110.15 32.4681V37.3481ZM121.192 36.9481C121.107 36.9801 120.974 37.0388 120.792 37.1241C120.611 37.2095 120.392 37.2841 120.136 37.3481C119.88 37.4121 119.603 37.4441 119.304 37.4441C118.995 37.4441 118.702 37.3855 118.424 37.2681C118.158 37.1508 117.944 36.9748 117.784 36.7401C117.624 36.4948 117.544 36.1961 117.544 35.8441V29.8761H116.392V29.0121H117.544V26.1961H118.632V29.0121H120.552V29.8761H118.632V35.5401C118.654 35.8388 118.76 36.0628 118.952 36.2121C119.155 36.3615 119.384 36.4361 119.64 36.4361C119.939 36.4361 120.211 36.3881 120.456 36.2921C120.702 36.1855 120.851 36.1108 120.904 36.0681L121.192 36.9481ZM130.088 37.5081C129.405 37.5081 128.77 37.3961 128.184 37.1721C127.597 36.9481 127.09 36.6068 126.664 36.1481L127.112 35.3801C127.581 35.8175 128.05 36.1375 128.52 36.3401C129 36.5321 129.506 36.6281 130.04 36.6281C130.69 36.6281 131.218 36.5001 131.624 36.2441C132.029 35.9775 132.232 35.5988 132.232 35.1081C132.232 34.7775 132.13 34.5268 131.928 34.3561C131.736 34.1748 131.453 34.0308 131.08 33.9241C130.717 33.8068 130.28 33.6841 129.768 33.5561C129.192 33.3961 128.706 33.2308 128.312 33.0601C127.928 32.8788 127.634 32.6548 127.432 32.3881C127.24 32.1108 127.144 31.7535 127.144 31.3161C127.144 30.7721 127.277 30.3241 127.544 29.9721C127.821 29.6095 128.194 29.3375 128.664 29.1561C129.144 28.9641 129.677 28.8681 130.264 28.8681C130.904 28.8681 131.469 28.9695 131.96 29.1721C132.45 29.3748 132.85 29.6575 133.16 30.0201L132.632 30.7561C132.333 30.4148 131.976 30.1641 131.56 30.0041C131.154 29.8335 130.701 29.7481 130.2 29.7481C129.858 29.7481 129.533 29.7961 129.224 29.8921C128.914 29.9775 128.658 30.1268 128.456 30.3401C128.264 30.5428 128.168 30.8255 128.168 31.1881C128.168 31.4868 128.242 31.7215 128.392 31.8921C128.541 32.0521 128.765 32.1908 129.064 32.3081C129.362 32.4148 129.73 32.5321 130.168 32.6601C130.797 32.8308 131.346 33.0068 131.816 33.1881C132.285 33.3588 132.648 33.5828 132.904 33.8601C133.16 34.1375 133.288 34.5268 133.288 35.0281C133.288 35.8068 132.994 36.4148 132.408 36.8521C131.821 37.2895 131.048 37.5081 130.088 37.5081Z" fill="black"/>
</svg>
