<svg width="175" height="57" viewBox="0 0 175 57" fill="none" xmlns="http://www.w3.org/2000/svg">
<path fill-rule="evenodd" clip-rule="evenodd" d="M151.795 36.3717H172.399V17.6263H151.801C153.886 20.287 155.109 23.5175 155.109 26.9986C155.109 30.4086 153.908 33.6666 151.795 36.3717Z" fill="#49734A"/>
<path fill-rule="evenodd" clip-rule="evenodd" d="M156.324 4.11637C156.324 4.52453 156.776 4.85833 157.328 4.85833H165.743C166.296 4.85833 166.748 4.52453 166.748 4.11637V2.72701C166.748 2.31966 166.296 1.98666 165.743 1.98666H157.328C156.775 1.98666 156.323 2.31966 156.323 2.72701L156.324 4.11637Z" fill="black"/>
<path fill-rule="evenodd" clip-rule="evenodd" d="M161.264 13.8695C161.264 14.1152 161.489 14.3165 161.767 14.3165H168.799C169.076 14.3165 169.301 14.116 169.301 13.8695V11.1918C169.301 10.9461 169.076 10.7457 168.799 10.7457H161.766C161.489 10.7457 161.263 10.9461 161.263 11.1918V13.8695H161.264Z" fill="black"/>
<path fill-rule="evenodd" clip-rule="evenodd" d="M103.96 0L110.26 6.28243H124.665L125.94 2.3552C126.218 1.49847 127.185 0.851882 128.189 0.851882H145.02C146.023 0.851882 146.989 1.49847 147.268 2.3544L148.543 6.28243H169.385C172.156 6.28243 174.41 8.28363 174.41 10.7447V43.2536C174.41 45.7147 172.156 47.7167 169.385 47.7167H151.817L158.91 54.788L156.95 56.3398L102 1.55101L103.96 0ZM140.865 35.9011C140.958 35.8591 141.053 35.8195 141.144 35.775C146.494 33.2194 148.498 27.2958 145.622 22.5434C143.357 18.802 138.744 16.9051 134.273 17.5121C138.242 17.6301 142.036 19.5634 144.053 22.8933C146.779 27.3993 145.319 32.9082 140.865 35.9011ZM124.824 20.8024C127.208 17.2308 131.592 14.836 136.605 14.8368C144.166 14.8368 150.295 20.2827 150.295 26.9992C150.295 31.9521 146.962 36.2131 142.181 38.1108L144.123 40.0466C149.598 37.5499 153.098 32.4952 153.098 26.9992C153.098 18.9192 145.699 12.345 136.605 12.345C131.047 12.345 125.954 14.7746 122.881 18.8675L124.824 20.8024ZM136.605 10.5588C142.891 10.5588 148.454 13.3586 151.801 17.6269C153.886 20.2868 155.109 23.5173 155.109 26.9984C155.109 30.4083 153.908 33.6663 151.795 36.3715C150.184 38.4357 148.043 40.1767 145.499 41.4181L150.025 45.9305H169.385C171.048 45.9305 172.399 44.7295 172.399 43.2536V10.7447C172.399 9.26806 171.048 8.06783 169.385 8.06783H147.032L145.338 2.84985C145.309 2.76094 145.125 2.63728 145.02 2.63728H128.19C128.084 2.63728 127.9 2.76094 127.872 2.84985L126.177 8.06783H112.05L121.505 17.4943C124.978 13.1347 130.545 10.5588 136.605 10.5588Z" fill="#49734A"/>
<path d="M0.84 21.6C0.84 19.952 1.208 18.48 1.944 17.184C2.696 15.872 3.712 14.856 4.992 14.136C6.288 13.4 7.736 13.032 9.336 13.032C11.208 13.032 12.848 13.512 14.256 14.472C15.664 15.432 16.648 16.76 17.208 18.456H13.344C12.96 17.656 12.416 17.056 11.712 16.656C11.024 16.256 10.224 16.056 9.312 16.056C8.336 16.056 7.464 16.288 6.696 16.752C5.944 17.2 5.352 17.84 4.92 18.672C4.504 19.504 4.296 20.48 4.296 21.6C4.296 22.704 4.504 23.68 4.92 24.528C5.352 25.36 5.944 26.008 6.696 26.472C7.464 26.92 8.336 27.144 9.312 27.144C10.224 27.144 11.024 26.944 11.712 26.544C12.416 26.128 12.96 25.52 13.344 24.72H17.208C16.648 26.432 15.664 27.768 14.256 28.728C12.864 29.672 11.224 30.144 9.336 30.144C7.736 30.144 6.288 29.784 4.992 29.064C3.712 28.328 2.696 27.312 1.944 26.016C1.208 24.72 0.84 23.248 0.84 21.6ZM30.3499 26.808H23.6779L22.5739 30H19.0459L25.0699 13.224H28.9819L35.0059 30H31.4539L30.3499 26.808ZM29.4379 24.12L27.0139 17.112L24.5899 24.12H29.4379ZM49.4736 18.432C49.4736 19.328 49.2576 20.168 48.8256 20.952C48.4096 21.736 47.7456 22.368 46.8336 22.848C45.9376 23.328 44.8016 23.568 43.4256 23.568H40.6176V30H37.2576V13.248H43.4256C44.7216 13.248 45.8256 13.472 46.7376 13.92C47.6496 14.368 48.3296 14.984 48.7776 15.768C49.2416 16.552 49.4736 17.44 49.4736 18.432ZM43.2816 20.856C44.2096 20.856 44.8976 20.648 45.3456 20.232C45.7936 19.8 46.0176 19.2 46.0176 18.432C46.0176 16.8 45.1056 15.984 43.2816 15.984H40.6176V20.856H43.2816ZM63.2591 13.248V15.96H58.7951V30H55.4351V15.96H50.9711V13.248H63.2591ZM69.0227 13.248V23.616C69.0227 24.752 69.3187 25.624 69.9107 26.232C70.5027 26.824 71.3347 27.12 72.4067 27.12C73.4947 27.12 74.3347 26.824 74.9267 26.232C75.5187 25.624 75.8147 24.752 75.8147 23.616V13.248H79.1987V23.592C79.1987 25.016 78.8867 26.224 78.2627 27.216C77.6547 28.192 76.8307 28.928 75.7907 29.424C74.7667 29.92 73.6227 30.168 72.3587 30.168C71.1107 30.168 69.9747 29.92 68.9507 29.424C67.9427 28.928 67.1427 28.192 66.5507 27.216C65.9587 26.224 65.6627 25.016 65.6627 23.592V13.248H69.0227ZM91.0851 30L87.3891 23.472H85.8051V30H82.4451V13.248H88.7331C90.0291 13.248 91.1331 13.48 92.0451 13.944C92.9571 14.392 93.6371 15.008 94.0851 15.792C94.5491 16.56 94.7811 17.424 94.7811 18.384C94.7811 19.488 94.4611 20.488 93.8211 21.384C93.1811 22.264 92.2291 22.872 90.9651 23.208L94.9731 30H91.0851ZM85.8051 20.952H88.6131C89.5251 20.952 90.2051 20.736 90.6531 20.304C91.1011 19.856 91.3251 19.24 91.3251 18.456C91.3251 17.688 91.1011 17.096 90.6531 16.68C90.2051 16.248 89.5251 16.032 88.6131 16.032H85.8051V20.952ZM101.18 15.96V20.16H106.82V22.824H101.18V27.264H107.54V30H97.8201V13.224H107.54V15.96H101.18Z" fill="black"/>
<path d="M47.324 31.68C48.2773 31.68 49.128 31.878 49.876 32.274C50.6387 32.67 51.2327 33.2567 51.658 34.034C52.098 34.8113 52.318 35.75 52.318 36.85V44H49.832V37.224C49.832 36.1387 49.5607 35.31 49.018 34.738C48.4753 34.1513 47.7347 33.858 46.796 33.858C45.8573 33.858 45.1093 34.1513 44.552 34.738C44.0093 35.31 43.738 36.1387 43.738 37.224V44H41.252V37.224C41.252 36.1387 40.9807 35.31 40.438 34.738C39.8953 34.1513 39.1547 33.858 38.216 33.858C37.2773 33.858 36.5293 34.1513 35.972 34.738C35.4293 35.31 35.158 36.1387 35.158 37.224V44H32.65V31.878H35.158V33.264C35.5687 32.7653 36.0893 32.3767 36.72 32.098C37.3507 31.8193 38.0253 31.68 38.744 31.68C39.712 31.68 40.5773 31.8853 41.34 32.296C42.1027 32.7067 42.6893 33.3007 43.1 34.078C43.4667 33.3447 44.0387 32.7653 44.816 32.34C45.5933 31.9 46.4293 31.68 47.324 31.68ZM59.6674 44.198C58.5234 44.198 57.4894 43.9413 56.5654 43.428C55.6414 42.9 54.9154 42.1667 54.3874 41.228C53.8594 40.2747 53.5954 39.1747 53.5954 37.928C53.5954 36.696 53.8667 35.6033 54.4094 34.65C54.952 33.6967 55.6927 32.9633 56.6314 32.45C57.57 31.9367 58.6187 31.68 59.7774 31.68C60.936 31.68 61.9847 31.9367 62.9234 32.45C63.862 32.9633 64.6027 33.6967 65.1454 34.65C65.688 35.6033 65.9594 36.696 65.9594 37.928C65.9594 39.16 65.6807 40.2527 65.1234 41.206C64.566 42.1593 63.8034 42.9 62.8354 43.428C61.882 43.9413 60.826 44.198 59.6674 44.198ZM59.6674 42.02C60.3127 42.02 60.914 41.866 61.4714 41.558C62.0434 41.25 62.5054 40.788 62.8574 40.172C63.2094 39.556 63.3854 38.808 63.3854 37.928C63.3854 37.048 63.2167 36.3073 62.8794 35.706C62.542 35.09 62.0947 34.628 61.5374 34.32C60.98 34.012 60.3787 33.858 59.7334 33.858C59.088 33.858 58.4867 34.012 57.9294 34.32C57.3867 34.628 56.954 35.09 56.6314 35.706C56.3087 36.3073 56.1474 37.048 56.1474 37.928C56.1474 39.2333 56.4774 40.2453 57.1374 40.964C57.812 41.668 58.6554 42.02 59.6674 42.02ZM82.0127 31.68C82.966 31.68 83.8167 31.878 84.5647 32.274C85.3273 32.67 85.9213 33.2567 86.3467 34.034C86.7867 34.8113 87.0067 35.75 87.0067 36.85V44H84.5207V37.224C84.5207 36.1387 84.2493 35.31 83.7067 34.738C83.164 34.1513 82.4233 33.858 81.4847 33.858C80.546 33.858 79.798 34.1513 79.2407 34.738C78.698 35.31 78.4267 36.1387 78.4267 37.224V44H75.9407V37.224C75.9407 36.1387 75.6693 35.31 75.1267 34.738C74.584 34.1513 73.8433 33.858 72.9047 33.858C71.966 33.858 71.218 34.1513 70.6607 34.738C70.118 35.31 69.8467 36.1387 69.8467 37.224V44H67.3387V31.878H69.8467V33.264C70.2573 32.7653 70.778 32.3767 71.4087 32.098C72.0393 31.8193 72.714 31.68 73.4327 31.68C74.4007 31.68 75.266 31.8853 76.0287 32.296C76.7913 32.7067 77.378 33.3007 77.7887 34.078C78.1553 33.3447 78.7273 32.7653 79.5047 32.34C80.282 31.9 81.118 31.68 82.0127 31.68ZM100.208 37.642C100.208 38.0967 100.179 38.5073 100.12 38.874H90.858C90.9314 39.842 91.2907 40.6193 91.936 41.206C92.5814 41.7927 93.3734 42.086 94.312 42.086C95.6614 42.086 96.6147 41.5213 97.172 40.392H99.878C99.5114 41.5067 98.844 42.4233 97.876 43.142C96.9227 43.846 95.7347 44.198 94.312 44.198C93.1534 44.198 92.112 43.9413 91.188 43.428C90.2787 42.9 89.56 42.1667 89.032 41.228C88.5187 40.2747 88.262 39.1747 88.262 37.928C88.262 36.6813 88.5114 35.5887 89.01 34.65C89.5234 33.6967 90.2347 32.9633 91.144 32.45C92.068 31.9367 93.124 31.68 94.312 31.68C95.456 31.68 96.4754 31.9293 97.37 32.428C98.2647 32.9267 98.9614 33.6307 99.46 34.54C99.9587 35.4347 100.208 36.4687 100.208 37.642ZM97.59 36.85C97.5754 35.926 97.2454 35.1853 96.6 34.628C95.9547 34.0707 95.1554 33.792 94.202 33.792C93.3367 33.792 92.596 34.0707 91.98 34.628C91.364 35.1707 90.9974 35.9113 90.88 36.85H97.59ZM107.692 31.68C108.646 31.68 109.496 31.878 110.244 32.274C111.007 32.67 111.601 33.2567 112.026 34.034C112.452 34.8113 112.664 35.75 112.664 36.85V44H110.178V37.224C110.178 36.1387 109.907 35.31 109.364 34.738C108.822 34.1513 108.081 33.858 107.142 33.858C106.204 33.858 105.456 34.1513 104.898 34.738C104.356 35.31 104.084 36.1387 104.084 37.224V44H101.576V31.878H104.084V33.264C104.495 32.7653 105.016 32.3767 105.646 32.098C106.292 31.8193 106.974 31.68 107.692 31.68ZM117.689 33.924V40.634C117.689 41.0887 117.792 41.4187 117.997 41.624C118.217 41.8147 118.584 41.91 119.097 41.91H120.637V44H118.657C117.528 44 116.663 43.736 116.061 43.208C115.46 42.68 115.159 41.822 115.159 40.634V33.924H113.729V31.878H115.159V28.864H117.689V31.878H120.637V33.924H117.689ZM126.249 44.198C125.295 44.198 124.437 44.0293 123.675 43.692C122.927 43.34 122.333 42.8707 121.893 42.284C121.453 41.6827 121.218 41.0153 121.189 40.282H123.785C123.829 40.7953 124.071 41.228 124.511 41.58C124.965 41.9173 125.53 42.086 126.205 42.086C126.909 42.086 127.451 41.954 127.833 41.69C128.229 41.4113 128.427 41.0593 128.427 40.634C128.427 40.1793 128.207 39.842 127.767 39.622C127.341 39.402 126.659 39.16 125.721 38.896C124.811 38.6467 124.071 38.4047 123.499 38.17C122.927 37.9353 122.428 37.576 122.003 37.092C121.592 36.608 121.387 35.97 121.387 35.178C121.387 34.5327 121.577 33.946 121.959 33.418C122.34 32.8753 122.883 32.45 123.587 32.142C124.305 31.834 125.127 31.68 126.051 31.68C127.429 31.68 128.537 32.032 129.373 32.736C130.223 33.4253 130.678 34.3713 130.737 35.574H128.229C128.185 35.0313 127.965 34.5987 127.569 34.276C127.173 33.9533 126.637 33.792 125.963 33.792C125.303 33.792 124.797 33.9167 124.445 34.166C124.093 34.4153 123.917 34.7453 123.917 35.156C123.917 35.4787 124.034 35.75 124.269 35.97C124.503 36.19 124.789 36.366 125.127 36.498C125.464 36.6153 125.963 36.7693 126.623 36.96C127.503 37.1947 128.221 37.4367 128.779 37.686C129.351 37.9207 129.842 38.2727 130.253 38.742C130.663 39.2113 130.876 39.8347 130.891 40.612C130.891 41.3013 130.7 41.9173 130.319 42.46C129.937 43.0027 129.395 43.428 128.691 43.736C128.001 44.044 127.187 44.198 126.249 44.198Z" fill="black"/>
</svg>
