<svg width="22" height="22" viewBox="0 0 22 22" fill="none" xmlns="http://www.w3.org/2000/svg">
<path d="M7.09961 1.25C7.52021 1.25 7.901 1.39895 8.21484 1.66992C8.51222 1.92675 8.7186 2.26159 8.78613 2.66309H8.78711L9.4375 6.16309L9.44141 6.18457L9.44434 6.20703C9.48513 6.53347 9.48242 6.86366 9.39844 7.17188C9.31439 7.48005 9.15699 7.75411 8.93066 7.98047L8.92969 7.97949L6.91016 10.0205C7.15865 10.4289 7.43754 10.8289 7.74902 11.2197C8.07718 11.6314 8.43066 12.0329 8.80957 12.4238L9.20508 12.8193C9.70026 13.3145 10.2188 13.7739 10.7607 14.1963C11.1514 14.5008 11.5596 14.7862 11.9844 15.0537L13.9199 13.1201C14.1711 12.8689 14.4797 12.7008 14.8154 12.5967C15.1129 12.5044 15.4177 12.4664 15.7246 12.4922L15.8564 12.5078L15.8779 12.5107L15.8994 12.5146L19.3496 13.2148L19.3779 13.2207L19.4062 13.2285C19.7729 13.3333 20.0938 13.5315 20.3447 13.8242C20.6032 14.1257 20.75 14.4927 20.75 14.9004V18.9502C20.75 19.4356 20.5803 19.8807 20.2305 20.2305C19.8807 20.5803 19.4356 20.75 18.9502 20.75C16.7543 20.75 14.5916 20.2705 12.4688 19.3223C10.3471 18.3745 8.42186 17.0332 6.69434 15.3057C4.96682 13.5781 3.62555 11.6529 2.67773 9.53125C1.72942 7.40841 1.25 5.2457 1.25 3.0498C1.25005 2.56436 1.41973 2.11933 1.76953 1.76953C2.11933 1.41973 2.56436 1.25005 3.0498 1.25H7.09961Z" stroke="black" stroke-width="1.5"/>
</svg>
